<?xml version="1.0" encoding="utf-8"?>
<!-- Generator: Adobe Illustrator 16.0.0, SVG Export Plug-In . SVG Version: 6.00 Build 0)  -->
<!DOCTYPE svg PUBLIC "-//W3C//DTD SVG 1.1//EN" "http://www.w3.org/Graphics/SVG/1.1/DTD/svg11.dtd">
<svg version="1.1" id="Layer_2" xmlns="http://www.w3.org/2000/svg" xmlns:xlink="http://www.w3.org/1999/xlink" x="0px" y="0px"
	 width="138.496px" height="138.502px" viewBox="0 0 138.496 138.502" enable-background="new 0 0 138.496 138.502"
	 xml:space="preserve">
<g id="right">
	<g>
		<circle fill="#FFFFFF" cx="69.248" cy="69.251" r="69.251"/>
	</g>
</g>
<g id="right_1_">
	<g>
		<path fill-rule="evenodd" clip-rule="evenodd" fill="#5E7C99" d="M127.629,61.855c-3.471-29.376-28.097-51.092-57.529-50.55
			c-3.643,0.067-4.773,1.217-3.727,4.723c1.127,3.771,2.508,7.554,2.948,11.427c0.688,6.05,3.313,8.584,9.628,9.734
			c15.852,2.889,26.338,19.047,24.066,35.054c-1.311,9.228-5.713,16.361-13.075,21.913c-1.215,0.916-2.787,2.851-2.55,3.962
			c1.551,7.227,3.556,14.355,5.553,22.061c2.176-0.922,3.926-1.517,5.539-2.369C115.803,108.654,130.613,87.124,127.629,61.855z
			 M68.343,100.056c-5.222-2.11-11.185-3.129-15.625-6.303c-17.872-12.774-17.78-37.954-0.414-51.509
			c1.459-1.139,3.194-3.567,2.909-5.025c-1.371-6.996-3.393-13.865-5.268-21.103C25.688,24.823,8.004,53.971,17.323,84.794
			c9.597,31.741,42.002,43.024,59.852,38.945c-1.815-7.193-3.531-14.41-5.563-21.537C71.339,101.243,69.559,100.547,68.343,100.056z
			"/>
	</g>
</g>
</svg>
