<?xml version="1.0" encoding="utf-8"?>
<!-- Generator: Adobe Illustrator 16.0.0, SVG Export Plug-In . SVG Version: 6.00 Build 0)  -->
<!DOCTYPE svg PUBLIC "-//W3C//DTD SVG 1.1//EN" "http://www.w3.org/Graphics/SVG/1.1/DTD/svg11.dtd">
<svg version="1.1" id="Layer_1" xmlns="http://www.w3.org/2000/svg" xmlns:xlink="http://www.w3.org/1999/xlink" x="0px" y="0px"
	 width="113.22px" height="112.964px" viewBox="0 0 113.22 112.964" enable-background="new 0 0 113.22 112.964"
	 xml:space="preserve">
<g id="right_1_">
	<g>
		<path fill-rule="evenodd" clip-rule="evenodd" fill="#5E7C99" d="M112.835,50.56C109.364,21.184,84.738-0.532,55.306,0.01
			c-3.643,0.067-4.773,1.217-3.727,4.723c1.127,3.771,2.508,7.554,2.948,11.427c0.688,6.05,3.313,8.584,9.628,9.734
			c15.852,2.889,26.338,19.047,24.066,35.054c-1.311,9.228-5.713,16.361-13.075,21.913c-1.215,0.916-2.787,2.851-2.55,3.962
			c1.551,7.227,3.556,14.355,5.553,22.061c2.176-0.922,3.926-1.517,5.539-2.369C101.009,97.358,115.819,75.828,112.835,50.56z
			 M53.549,88.76c-5.222-2.11-11.185-3.129-15.625-6.303c-17.872-12.774-17.78-37.954-0.414-51.509
			c1.459-1.139,3.194-3.567,2.909-5.025c-1.371-6.996-3.393-13.865-5.268-21.103C10.894,13.527-6.79,42.675,2.529,73.498
			c9.597,31.741,42.002,43.024,59.852,38.945c-1.815-7.193-3.531-14.41-5.563-21.537C56.545,89.947,54.765,89.251,53.549,88.76z"/>
	</g>
</g>
</svg>
