<?xml version="1.0" encoding="utf-8"?>
<!-- Generator: Adobe Illustrator 16.0.0, SVG Export Plug-In . SVG Version: 6.00 Build 0)  -->
<!DOCTYPE svg PUBLIC "-//W3C//DTD SVG 1.1//EN" "http://www.w3.org/Graphics/SVG/1.1/DTD/svg11.dtd">
<svg version="1.1" id="Layer_1" xmlns="http://www.w3.org/2000/svg" xmlns:xlink="http://www.w3.org/1999/xlink" x="0px" y="0px"
	 width="59.763px" height="23.074px" viewBox="0 0 59.763 23.074" enable-background="new 0 0 59.763 23.074" xml:space="preserve">
<g id="ICTS_copy">
	<g>
		<path fill-rule="evenodd" clip-rule="evenodd" fill="#FFFFFF" d="M55.792,10.553c-1.387-0.578-2.851-0.985-4.267-1.501
			C50.766,8.774,50,8.484,49.296,8.101c-0.701-0.384-0.865-1.092-0.794-1.816c0.073-0.752,0.481-1.317,1.267-1.523
			c0.536-0.14,1.096-0.236,1.65-0.264c1.865-0.096,3.664,0.225,5.417,0.974c0.725-1.372,1.423-2.693,2.122-4.02
			c-0.143-0.082-0.219-0.138-0.303-0.173c-3.024-1.271-6.196-1.554-9.406-1.026c-3.346,0.551-5.012,2.146-5.491,5.163
			c-0.343,2.155-0.094,4.282,1.853,5.739c1.009,0.756,2.234,1.284,3.428,1.767c1.414,0.571,2.923,0.928,4.346,1.481
			c1.324,0.515,1.729,1.354,1.537,2.757c-0.13,0.953-0.799,1.509-2.111,1.729c-0.344,0.058-0.694,0.091-1.043,0.104
			c-2.363,0.083-4.578-0.435-6.669-1.58c-0.827,1.204-1.632,2.376-2.485,3.616c0.25,0.151,0.418,0.273,0.603,0.362
			c0.417,0.2,0.831,0.409,1.266,0.569c3.016,1.116,6.14,1.281,9.316,0.938c3.61-0.39,5.729-2.386,5.938-5.833
			C59.941,13.677,59.052,11.912,55.792,10.553z M16.453,18.785c-2.142-0.094-3.271-0.936-3.826-2.905
			c-0.594-2.106-0.493-4.262-0.343-6.404c0.059-0.838,0.251-1.687,0.525-2.485c0.465-1.355,1.494-2.104,3.001-2.265
			c1.695-0.181,3.303,0.05,4.857,0.865c0.88-1.3,1.742-2.57,2.653-3.916C23.215,1.606,23.16,1.565,23.1,1.531
			c-0.161-0.091-0.319-0.188-0.485-0.268c-2.722-1.32-5.591-1.474-8.54-0.976c-3.191,0.538-5.313,2.311-6.162,5.271
			C6.777,9.514,6.796,13.53,7.906,17.491c0.748,2.67,2.527,4.511,5.405,5.206c2.072,0.5,4.169,0.468,6.265,0.105
			c1.369-0.237,2.618-0.747,3.837-1.505c-0.83-1.247-1.626-2.441-2.439-3.663C19.566,18.543,18.06,18.855,16.453,18.785z
			 M24.606,4.656h6.307v18.072h4.939V4.615h6.327V0.348H24.606V4.656z M0,22.718h4.833V0.347H0V22.718z"/>
	</g>
</g>
</svg>
