<?xml version="1.0" encoding="utf-8"?>
<!-- Generator: Adobe Illustrator 16.0.0, SVG Export Plug-In . SVG Version: 6.00 Build 0)  -->
<!DOCTYPE svg PUBLIC "-//W3C//DTD SVG 1.1//EN" "http://www.w3.org/Graphics/SVG/1.1/DTD/svg11.dtd">
<svg version="1.1" id="Layer_1" xmlns="http://www.w3.org/2000/svg" xmlns:xlink="http://www.w3.org/1999/xlink" x="0px" y="0px"
	 width="23.504px" height="23.081px" viewBox="0 0 23.504 23.081" enable-background="new 0 0 23.504 23.081" xml:space="preserve">
<g id="MINI_copy">
	<g>
		<path fill-rule="evenodd" clip-rule="evenodd" fill="#FFFFFF" d="M23.425,10.308C22.704,4.318,17.592-0.108,11.481,0.002
			c-0.756,0.014-0.99,0.248-0.773,0.963c0.233,0.77,0.521,1.54,0.611,2.33c0.144,1.233,0.688,1.75,1.999,1.984
			c3.291,0.589,5.468,3.883,4.997,7.147c-0.272,1.881-1.187,3.334-2.715,4.467c-0.252,0.186-0.579,0.58-0.529,0.807
			c0.322,1.475,0.738,2.928,1.152,4.498c0.452-0.188,0.815-0.309,1.15-0.482C20.97,19.848,24.044,15.459,23.425,10.308z
			 M11.116,18.096c-1.084-0.432-2.321-0.639-3.243-1.285C4.163,14.206,4.182,9.073,7.787,6.31C8.09,6.077,8.45,5.582,8.392,5.285
			C8.106,3.858,7.687,2.458,7.298,0.983C2.261,2.758-1.41,8.7,0.525,14.985c1.993,6.471,8.72,8.77,12.425,7.939
			c-0.377-1.467-0.732-2.938-1.154-4.391C11.739,18.338,11.369,18.196,11.116,18.096z"/>
	</g>
</g>
</svg>
