<?xml version="1.0" encoding="utf-8"?>
<!-- Generator: Adobe Illustrator 16.0.0, SVG Export Plug-In . SVG Version: 6.00 Build 0)  -->
<!DOCTYPE svg PUBLIC "-//W3C//DTD SVG 1.1//EN" "http://www.w3.org/Graphics/SVG/1.1/DTD/svg11.dtd">
<svg version="1.1" id="Layer_1" xmlns="http://www.w3.org/2000/svg" xmlns:xlink="http://www.w3.org/1999/xlink" x="0px" y="0px"
	 width="90.553px" height="35.961px" viewBox="0 0 90.553 35.961" enable-background="new 0 0 90.553 35.961" xml:space="preserve">
<g id="ICTS">
	<g>
		<path fill-rule="evenodd" clip-rule="evenodd" fill="#010101" d="M84.535,16.446c-2.101-0.9-4.318-1.535-6.464-2.34
			c-1.151-0.433-2.313-0.883-3.378-1.482c-1.063-0.598-1.311-1.701-1.203-2.83c0.11-1.172,0.729-2.054,1.92-2.374
			c0.812-0.219,1.66-0.368,2.499-0.412c2.827-0.148,5.554,0.351,8.208,1.518c1.098-2.139,2.155-4.198,3.216-6.264
			c-0.217-0.129-0.331-0.215-0.459-0.271c-4.582-1.98-9.389-2.421-14.253-1.599c-5.069,0.857-7.593,3.343-8.319,8.046
			c-0.519,3.359-0.142,6.675,2.807,8.945c1.528,1.178,3.387,2.001,5.195,2.753c2.142,0.892,4.428,1.445,6.584,2.309
			c2.006,0.803,2.619,2.112,2.329,4.297c-0.197,1.486-1.211,2.352-3.199,2.695c-0.521,0.091-1.053,0.143-1.582,0.162
			c-3.579,0.129-6.936-0.677-10.104-2.462c-1.254,1.875-2.474,3.701-3.766,5.635c0.379,0.237,0.633,0.427,0.912,0.565
			c0.632,0.312,1.261,0.637,1.918,0.888c4.569,1.738,9.304,1.996,14.116,1.462c5.47-0.606,8.681-3.718,8.997-9.092
			C90.822,21.315,89.476,18.564,84.535,16.446z M24.93,29.277c-3.246-0.146-4.956-1.458-5.797-4.528
			c-0.9-3.284-0.747-6.642-0.52-9.981c0.088-1.306,0.38-2.629,0.796-3.874c0.704-2.112,2.264-3.278,4.548-3.528
			c2.568-0.282,5.004,0.076,7.358,1.348c1.334-2.025,2.64-4.007,4.02-6.104C35.176,2.503,35.091,2.439,35,2.387
			c-0.244-0.143-0.483-0.293-0.735-0.419c-4.124-2.057-8.472-2.295-12.939-1.521c-4.834,0.839-8.051,3.603-9.337,8.215
			c-1.72,6.165-1.691,12.424-0.009,18.598c1.134,4.162,3.828,7.03,8.188,8.113c3.14,0.78,6.318,0.73,9.493,0.165
			c2.074-0.37,3.966-1.165,5.813-2.346c-1.258-1.943-2.463-3.805-3.695-5.708C29.646,28.898,27.363,29.387,24.93,29.277z
			 M37.283,7.256h9.557v28.167h7.484V7.193h9.587V0.541H37.283V7.256z M0,35.405h7.322V0.54H0V35.405z"/>
	</g>
</g>
</svg>
