<?xml version="1.0" encoding="utf-8"?>
<!-- Generator: Adobe Illustrator 16.0.0, SVG Export Plug-In . SVG Version: 6.00 Build 0)  -->
<!DOCTYPE svg PUBLIC "-//W3C//DTD SVG 1.1//EN" "http://www.w3.org/Graphics/SVG/1.1/DTD/svg11.dtd">
<svg version="1.1" id="Layer_1" xmlns="http://www.w3.org/2000/svg" xmlns:xlink="http://www.w3.org/1999/xlink" x="0px" y="0px"
	 width="19.975px" height="18.643px" viewBox="0 0 19.975 18.643" enable-background="new 0 0 19.975 18.643" xml:space="preserve">
<g id="Shape_7">
	<g>
		<path fill="#5E7C99" d="M19.612,15.753c-0.093-0.506-0.365-0.981-0.572-1.465c-0.32-0.752-0.773-1.446-1.297-2.055
			c-0.74-0.86-1.564-1.664-2.661-2.242c0.437-0.549,0.755-1.099,0.914-1.708c0.161-0.618,0.373-1.225,0.352-1.889
			c-0.02-0.629-0.085-1.234-0.264-1.841c-0.179-0.609-0.392-1.205-0.775-1.707c-0.401-0.526-0.807-1.102-1.341-1.47
			C11.12-0.581,8.421-0.356,5.923,1.452C5.17,1.996,4.629,2.768,4.241,3.596C3.753,4.639,3.493,5.764,3.658,6.915
			C3.813,7.99,4.125,9.033,4.885,9.962c-3.219,2.1-4.832,4.956-4.885,8.681h1.345c-0.108-1.591,0.327-3.012,1.08-4.368
			c0.766-1.379,1.832-2.448,3.26-3.243c0.181,0.081,0.427,0.132,0.589,0.274c0.435,0.383,0.956,0.594,1.483,0.787
			c0.604,0.223,1.217,0.44,1.881,0.424c0.302-0.008,0.605,0.02,0.905-0.008c0.309-0.027,0.613-0.103,0.92-0.155
			c0.313-0.055,1.429-0.539,1.75-0.734c0.366-0.224,0.747-0.424,1.066-0.603c1.476,0.822,2.534,1.911,3.298,3.286
			c0.749,1.351,1.169,2.78,1.059,4.34h1.302C20.078,17.63,19.784,16.694,19.612,15.753z M13.541,9.816
			c-0.993,0.947-2.2,1.446-3.61,1.419c-1.362-0.03-2.559-0.485-3.516-1.439C5.374,8.757,4.88,7.488,4.961,6.013
			c0.07-1.283,0.547-2.398,1.477-3.287c1.063-1.017,2.357-1.49,3.856-1.403c1.274,0.074,2.381,0.538,3.27,1.424
			c1.042,1.039,1.536,2.308,1.455,3.783C14.948,7.813,14.472,8.929,13.541,9.816z"/>
	</g>
</g>
</svg>
