<?xml version="1.0" encoding="utf-8"?>
<!-- Generator: Adobe Illustrator 16.0.0, SVG Export Plug-In . SVG Version: 6.00 Build 0)  -->
<!DOCTYPE svg PUBLIC "-//W3C//DTD SVG 1.1//EN" "http://www.w3.org/Graphics/SVG/1.1/DTD/svg11.dtd">
<svg version="1.1" id="Layer_2" xmlns="http://www.w3.org/2000/svg" xmlns:xlink="http://www.w3.org/1999/xlink" x="0px" y="0px"
	 width="230.063px" height="53.27px" viewBox="0 0 230.063 53.27" enable-background="new 0 0 230.063 53.27" xml:space="preserve">
<path fill="#515152" d="M70.513,35.432c0,5.874,0,11.45,0,17.084c-1.354,0.259-2.598,0.496-3.944,0.753
	c-0.022-0.451-0.063-0.82-0.063-1.191c0.014-5.901,0.016-11.804,0.054-17.704c0.032-5.215,0.172-10.431,0.129-15.645
	c-0.02-2.284-0.351-4.568-0.597-6.849c-0.07-0.646,0.123-0.925,0.722-1.011c0.779-0.113,1.576-0.179,2.328-0.396
	c0.883-0.258,1.09,0.185,1.106,0.907c0.019,0.786,0.004,1.572,0.004,2.656c0.499-0.387,0.732-0.537,0.935-0.728
	c5.195-4.914,13.275-3.175,15.78,3.548c2.093,5.618,1.694,11.22-1.084,16.541c-3.254,6.231-9.827,6.002-13.931,3.092
	C71.557,36.21,71.169,35.915,70.513,35.432z M70.478,26.199c0.007,0,0.017,0,0.021,0c0,1.072,0.111,2.16-0.024,3.216
	c-0.253,1.93,0.664,3.131,2.156,4.027c0.706,0.425,1.435,0.85,2.206,1.114c4.084,1.401,7.372-0.4,8.469-4.65
	c0.967-3.747,0.819-7.503-0.147-11.226c-0.634-2.427-2.094-4.102-4.614-4.438c-2.773-0.371-5.224,0.505-7.146,2.595
	c-0.474,0.517-0.849,1.333-0.879,2.029C70.413,21.308,70.478,23.755,70.478,26.199z"/>
<path fill="#515152" d="M132.464,31.17c-1.194,4.219-4.155,6.598-8.302,7.306c-3.49,0.597-6.854,0.085-9.65-2.396
	c-2.253-1.995-3.142-4.721-3.616-7.594c-0.498-3.013-0.403-6.043,0.266-9.017c1.235-5.498,4.977-8.59,10.4-8.72
	c5.649-0.136,9.597,2.767,11.063,8.32C132.625,19.071,134.24,23.893,132.464,31.17z M128.706,25.182
	c0.021-3.222-0.434-5.799-1.291-7.617c-1.334-2.822-3.479-3.671-5.681-3.529c-3.604,0.229-5.312,1.516-6.082,4.569
	c-1.066,4.241-0.909,8.505,0.35,12.682c0.779,2.591,3.057,4.104,5.862,4.165c2.95,0.063,5.045-1.188,5.91-3.97
	C128.402,29.473,128.798,25.2,128.706,25.182z"/>
<path fill="#515152" d="M178.428,33.088c2.396-7.13,4.734-14.021,7.011-20.938c0.293-0.892,0.679-1.219,1.584-1.141
	c0.972,0.086,1.951,0.021,3.101,0.021c-0.361,1.06-0.668,2.016-1.014,2.958c-2.765,7.595-5.554,15.182-8.285,22.788
	c-0.353,0.976-0.791,1.357-1.854,1.32c-2.546-0.092-2.582-0.015-3.432-2.426c-2.729-7.731-5.429-15.477-8.13-23.217
	c-0.137-0.386-0.213-0.791-0.34-1.279c1.1-0.246,2.122-0.433,3.12-0.718c0.697-0.199,0.935,0.115,1.123,0.709
	c2.254,7.007,4.521,14.01,6.786,21.014C178.175,32.424,178.271,32.659,178.428,33.088z"/>
<path fill="#515152" d="M151.021,34.971c0.094,0.123,0.181,0.202,0.224,0.302c0.845,1.959,0.647,2.477-1.396,2.879
	c-1.271,0.252-2.631,0.454-3.893,0.271c-3.174-0.461-4.81-2.483-4.813-5.766c-0.01-5.219,0.05-10.438,0.078-15.654
	c0.005-0.915,0.001-1.829,0.001-2.927c-0.912,0-1.652-0.035-2.388,0.01c-0.794,0.049-1.211-0.181-1.111-1.088
	c0.065-0.599,0.013-1.21,0.013-1.967c0.952,0,1.81-0.023,2.66,0.008c0.627,0.021,0.997-0.128,0.991-0.874
	c-0.012-1.756,0.095-3.517,0.021-5.269c-0.063-1.479,0.063-1.785,1.451-2.099c0.692-0.154,1.389-0.302,2.288-0.498
	c0,1.107,0,2.154,0,3.201c0.001,1.42,0.059,2.844-0.017,4.259c-0.054,1.028,0.493,1.257,1.296,1.262
	c1.769,0.014,3.536,0.004,5.527,0.004c-0.396,0.995-0.677,1.892-1.117,2.692c-0.137,0.249-0.714,0.331-1.093,0.343
	c-1.421,0.038-2.846,0.016-4.394,0.016c0,0.59,0.015,1.002-0.002,1.414c-0.125,3.754-0.292,7.506-0.368,11.26
	c-0.036,1.799,0.014,3.607,0.176,5.397c0.227,2.51,2.052,3.765,4.46,3.196C150.089,35.234,150.555,35.096,151.021,34.971z"/>
<path fill="#515152" d="M209.386,14.074c-1.075,0-1.855-0.029-2.634,0.008c-0.725,0.035-1.035-0.229-0.97-0.996
	c0.054-0.638,0.011-1.283,0.011-2.059c1.01,0,1.91,0.063,2.794-0.034c0.303-0.034,0.79-0.467,0.805-0.738
	c0.098-1.789,0.165-3.589,0.09-5.378c-0.063-1.455,0.075-1.793,1.453-2.09c0.693-0.148,1.388-0.294,2.278-0.482
	c0,1.228,0,2.393,0,3.557c0,1.267,0.063,2.536-0.021,3.797c-0.066,1.044,0.431,1.362,1.312,1.365
	c1.768,0.008,3.535,0.003,5.503,0.003c-0.399,0.993-0.694,1.884-1.126,2.697c-0.122,0.229-0.644,0.327-0.982,0.337
	c-1.462,0.034-2.925,0.017-4.354,0.017c-0.087,0.229-0.158,0.33-0.16,0.433c-0.082,5.404-0.158,10.81-0.232,16.214
	c-0.005,0.346,0.01,0.69,0.029,1.035c0.183,2.807,1.831,4.116,4.569,3.628c0.475-0.085,0.945-0.191,1.521-0.31
	c0.154,0.659,0.363,1.272,0.41,1.898c0.019,0.223-0.313,0.579-0.563,0.694c-1.978,0.918-4.025,1.23-6.146,0.575
	c-2.229-0.689-3.753-2.713-3.759-5.309c-0.011-4.79,0.11-9.58,0.168-14.371C209.4,17.121,209.386,15.675,209.386,14.074z"/>
<path fill="#515152" d="M106.571,14.817c-0.931,0.054-1.735-0.002-2.5,0.158c-3.131,0.656-4.784,2.818-4.806,6.521
	c-0.023,4.749,0.1,9.499,0.156,14.248c0.008,0.571,0.001,1.146,0.001,1.825c-1.396,0-2.717,0-4.12,0
	c-0.427-8.716,0.849-17.463-0.699-26.193c1.061-0.289,2.111-0.539,3.141-0.87c0.621-0.199,0.933,0,1.07,0.599
	c0.23,0.981,0.455,1.965,0.729,3.146c2.358-2.565,4.834-4.56,8.599-3.806C107.61,11.921,107.093,13.365,106.571,14.817z"/>
<g id="protiviti_copy">
	<g>
		<path fill="#5E7C99" d="M162.052,24.118V12.673c0-2.004,0-2.002-1.895-1.771c-0.226,0.027-0.451,0.019-0.679,0.035
			c-1.029,0.077-1.551,0.44-1.539,1.708c0.068,7.438,0.034,14.874,0.034,22.313c0,2.849,0,2.808,2.813,2.846
			c0.99,0.015,1.296-0.298,1.282-1.313C162.023,32.365,162.052,28.241,162.052,24.118z M199.781,24.116V13.251
			c0-2.737,0.004-2.714-2.687-2.297c-1.011,0.155-1.433,0.533-1.423,1.699c0.061,7.437,0.031,14.872,0.031,22.31
			c0,2.845,0,2.803,2.815,2.842c0.997,0.014,1.291-0.31,1.279-1.32C199.753,32.361,199.781,28.24,199.781,24.116z M229.849,13.24
			c-0.01-3.515-0.257-2.409-2.788-2.229c-0.813,0.059-1.113,0.469-1.104,1.354c0.048,4.005,0.021,8.012,0.021,12.018v10.4
			c0,3.122,0,3.102,3.092,3.014c0.725-0.021,1.003-0.254,0.993-1.011c-0.026-2.575,0.015-5.15-0.015-7.727
			C229.992,23.786,229.865,18.513,229.849,13.24z M230.777,2.839c0.03-1.894-0.818-2.822-2.595-2.838
			c-1.979-0.018-2.962,0.847-2.967,2.605c-0.005,1.842,0.979,2.848,2.788,2.852C229.715,5.462,230.751,4.483,230.777,2.839z
			 M160.088,0c-1.654,0.017-2.764,1.047-2.736,2.544c0.029,1.62,1.349,3.068,2.793,3.071c1.521,0.002,2.593-1.188,2.59-2.873
			C162.73,1.049,161.704-0.015,160.088,0z M197.827,0.003c-1.659,0.001-2.594,0.909-2.577,2.511
			c0.015,1.619,1.353,3.113,2.773,3.098c1.404-0.018,2.688-1.286,2.653-2.63C200.637,1.321,199.374,0.002,197.827,0.003z"/>
	</g>
</g>
<g enable-background="new    ">
	<path fill="#8B8A8A" d="M1.458,17.823c0-2.604-0.314-4.702-0.942-6.299l3.978-0.937c0.628,1.264,0.941,2.493,0.941,3.687v0.21
		c0.907-0.935,1.971-1.766,3.192-2.493c1.57-0.936,3.036-1.403,4.396-1.403c2.198,0,3.926,0.866,5.182,2.598
		c0.348,0.486,0.645,1.058,0.89,1.715c2.721-2.875,5.512-4.313,8.373-4.313c1.918,0,3.488,0.659,4.71,1.975
		c1.221,1.316,1.832,2.996,1.832,5.039v19.535h-4.187v-19.12c0-2.527-1.117-3.793-3.35-3.793c-1.256,0-2.53,0.468-3.82,1.403
		c-0.559,0.416-1.431,1.143-2.616,2.182l-0.472,0.416v18.911h-4.134V18.744c0-1.663-0.244-2.771-0.731-3.325
		c-0.629-0.692-1.519-1.039-2.669-1.039c-1.885,0-4.101,1.143-6.646,3.429v19.327H1.458V17.823z"/>
	<path fill="#8B8A8A" d="M44.58,28.044L38.98,11.835l4.03-1.352l5.338,16.781c0.488,1.489,1.011,3.637,1.57,6.442h0.104l1.623-5.455
		l5.128-16.938h4.658L52.482,38.07c-1.187,3.498-2.563,5.992-4.134,7.482c-1.187,1.107-2.617,1.852-4.292,2.233l-1.204-2.753
		c1.361-0.243,2.582-1.022,3.664-2.339c0.907-1.073,1.691-2.944,2.354-5.61l-1.675,0.26C46.707,34.816,45.836,31.715,44.58,28.044z"
		/>
</g>
</svg>
