<?xml version="1.0" encoding="utf-8"?>
<!-- Generator: Adobe Illustrator 16.0.0, SVG Export Plug-In . SVG Version: 6.00 Build 0)  -->
<!DOCTYPE svg PUBLIC "-//W3C//DTD SVG 1.1//EN" "http://www.w3.org/Graphics/SVG/1.1/DTD/svg11.dtd">
<svg version="1.1" id="Layer_1" xmlns="http://www.w3.org/2000/svg" xmlns:xlink="http://www.w3.org/1999/xlink" x="0px" y="0px"
	 width="131.333px" height="29.395px" viewBox="0 0 131.333 29.395" enable-background="new 0 0 131.333 29.395"
	 xml:space="preserve">
<g enable-background="new    ">
	<path fill="#FFFFFF" d="M0.713,12.136c0-1.493-0.178-2.697-0.535-3.612l2.257-0.537c0.356,0.725,0.535,1.43,0.535,2.114v0.121
		c0.515-0.536,1.119-1.013,1.812-1.43c0.891-0.536,1.723-0.804,2.495-0.804c1.248,0,2.228,0.497,2.94,1.49
		c0.198,0.278,0.366,0.606,0.505,0.983c1.544-1.648,3.128-2.473,4.752-2.473c1.089,0,1.98,0.377,2.673,1.132
		c0.693,0.755,1.04,1.719,1.04,2.891v11.203h-2.376V12.248c0-1.45-0.634-2.175-1.9-2.175c-0.713,0-1.436,0.268-2.168,0.805
		c-0.317,0.238-0.812,0.655-1.485,1.251l-0.268,0.238v10.846H8.644V12.665c0-0.954-0.139-1.589-0.416-1.907
		c-0.356-0.397-0.861-0.596-1.515-0.596c-1.069,0-2.327,0.656-3.772,1.967v11.084H0.713V12.136z"/>
	<path fill="#FFFFFF" d="M25.187,17.998l-3.178-9.296l2.287-0.774l3.029,9.624c0.277,0.854,0.574,2.085,0.891,3.694h0.06l0.92-3.129
		l2.911-9.713h2.644l-5.079,15.345c-0.673,2.007-1.455,3.437-2.346,4.291c-0.673,0.636-1.485,1.062-2.436,1.281l-0.683-1.579
		c0.772-0.14,1.465-0.586,2.079-1.342c0.515-0.615,0.96-1.688,1.336-3.217l-0.95,0.148C26.394,21.883,25.899,20.104,25.187,17.998z"
		/>
	<path fill="#FFFFFF" d="M37.75,11.98c0-1.669-0.119-2.861-0.356-3.576l2.406-0.417c0.099,0.497,0.148,1.122,0.148,1.877v0.387
		c1.228-1.45,2.683-2.175,4.366-2.175c1.624,0,2.94,0.616,3.95,1.847c1.089,1.331,1.634,3.278,1.634,5.84
		c0,2.126-0.396,3.834-1.188,5.125c-1.109,1.809-2.634,2.711-4.574,2.711c-1.604,0-2.96-0.575-4.069-1.728v7.091L37.75,29.41V11.98z
		 M40.066,12.248v7.479c1.128,1.291,2.336,1.938,3.624,1.938c1.504,0,2.544-0.616,3.119-1.848c0.416-0.895,0.624-2.146,0.624-3.754
		c0-1.908-0.228-3.328-0.683-4.262c-0.535-1.092-1.446-1.639-2.732-1.639C42.532,10.162,41.214,10.858,40.066,12.248z"/>
	<path fill="#FFFFFF" d="M54.292,11.846c0-1.376-0.178-2.473-0.535-3.291l2.317-0.628c0.336,0.753,0.505,1.506,0.505,2.259V10.4
		c1.168-1.648,2.554-2.473,4.158-2.473c0.238,0,0.505,0.05,0.802,0.149l-0.951,2.533c-0.257-0.079-0.475-0.119-0.653-0.119
		c-0.594,0-1.184,0.174-1.767,0.521c-0.584,0.348-1.015,0.78-1.292,1.296c-0.178,0.357-0.268,0.894-0.268,1.609v9.296h-2.316V11.846
		z"/>
	<path fill="#FFFFFF" d="M63.025,15.823c0-2.403,0.564-4.3,1.693-5.691c1.128-1.39,2.663-2.085,4.603-2.085
		c2.198,0,3.891,0.864,5.079,2.592c0.911,1.331,1.366,3.168,1.366,5.512c0,2.741-0.771,4.787-2.316,6.138
		c-1.09,0.953-2.436,1.43-4.039,1.43c-1.98,0-3.54-0.704-4.678-2.115C63.594,20.193,63.025,18.266,63.025,15.823z M72.44,11.861
		c-0.614-1.271-1.664-1.907-3.148-1.907c-1.445,0-2.455,0.537-3.029,1.609c-0.475,0.875-0.713,2.166-0.713,3.873
		c0,2.226,0.302,3.84,0.906,4.842c0.604,1.004,1.607,1.506,3.014,1.506c1.604,0,2.674-0.746,3.208-2.235
		c0.298-0.834,0.446-1.907,0.446-3.218C73.124,14.303,72.895,12.814,72.44,11.861z"/>
	<path fill="#FFFFFF" d="M82.626,8.344h3.743l-0.713,1.817h-3.119v9.535c0,0.834,0.139,1.41,0.416,1.729
		c0.277,0.317,0.771,0.477,1.484,0.477c0.594,0,1.09-0.1,1.485-0.299l0.327,1.49c-0.753,0.396-1.624,0.596-2.613,0.596
		c-2.238,0-3.357-1.122-3.357-3.367v-10.16h-1.93V8.344h1.93V8.166c0-0.258,0.07-1.291,0.209-3.099l0.029-0.387l2.406-0.536
		C82.725,5.733,82.626,7.133,82.626,8.344z"/>
	<path fill="#FFFFFF" d="M88.983,3.816c0-0.517,0.178-0.954,0.534-1.311c0.356-0.358,0.782-0.537,1.277-0.537
		c0.515,0,0.945,0.174,1.292,0.521c0.346,0.348,0.52,0.78,0.52,1.296c0,0.497-0.174,0.923-0.52,1.281
		c-0.347,0.358-0.777,0.537-1.292,0.537c-0.495,0-0.921-0.174-1.277-0.521C89.161,4.735,88.983,4.312,88.983,3.816z M89.547,23.213
		V8.434l2.465-0.387v15.166H89.547z"/>
	<path fill="#FFFFFF" d="M100.417,23.361L95.101,8.493l2.376-0.506l3.445,10.22c0.277,0.834,0.515,1.679,0.713,2.533h0.059
		c0.139-0.715,0.377-1.55,0.713-2.504l3.356-9.802l2.466-0.03l-5.525,14.957H100.417z"/>
	<path fill="#FFFFFF" d="M110.694,3.816c0-0.517,0.178-0.954,0.534-1.311c0.356-0.358,0.782-0.537,1.277-0.537
		c0.515,0,0.945,0.174,1.292,0.521c0.346,0.348,0.52,0.78,0.52,1.296c0,0.497-0.174,0.923-0.52,1.281
		c-0.347,0.358-0.777,0.537-1.292,0.537c-0.495,0-0.921-0.174-1.277-0.521C110.872,4.735,110.694,4.312,110.694,3.816z
		 M111.258,23.213V8.434l2.465-0.387v15.166H111.258z"/>
	<path fill="#FFFFFF" d="M121.295,8.344h3.743l-0.713,1.817h-3.118v9.535c0,0.834,0.138,1.41,0.416,1.729
		c0.276,0.317,0.771,0.477,1.484,0.477c0.594,0,1.089-0.1,1.484-0.299l0.327,1.49c-0.753,0.396-1.624,0.596-2.613,0.596
		c-2.237,0-3.356-1.122-3.356-3.367v-10.16h-1.931V8.344h1.931V8.166c0-0.258,0.069-1.291,0.208-3.099l0.03-0.387l2.405-0.536
		C121.395,5.733,121.295,7.133,121.295,8.344z"/>
	<path fill="#FFFFFF" d="M127.652,3.816c0-0.517,0.179-0.954,0.534-1.311c0.357-0.358,0.782-0.537,1.277-0.537
		c0.516,0,0.945,0.174,1.293,0.521c0.346,0.348,0.52,0.78,0.52,1.296c0,0.497-0.174,0.923-0.52,1.281
		c-0.348,0.358-0.777,0.537-1.293,0.537c-0.495,0-0.92-0.174-1.277-0.521C127.831,4.735,127.652,4.312,127.652,3.816z
		 M128.216,23.213V8.434l2.465-0.387v15.166H128.216z"/>
</g>
</svg>
