<?xml version="1.0" encoding="utf-8"?>
<!-- Generator: Adobe Illustrator 16.0.0, SVG Export Plug-In . SVG Version: 6.00 Build 0)  -->
<!DOCTYPE svg PUBLIC "-//W3C//DTD SVG 1.1//EN" "http://www.w3.org/Graphics/SVG/1.1/DTD/svg11.dtd">
<svg version="1.1" id="Layer_2" xmlns="http://www.w3.org/2000/svg" xmlns:xlink="http://www.w3.org/1999/xlink" x="0px" y="0px"
	 width="230.063px" height="53.269px" viewBox="0 0 230.063 53.269" enable-background="new 0 0 230.063 53.269"
	 xml:space="preserve">
<path fill-rule="evenodd" clip-rule="evenodd" fill="#010101" d="M70.513,35.432c0,5.874,0,11.451,0,17.084
	c-1.354,0.259-2.598,0.496-3.944,0.753c-0.024-0.451-0.063-0.821-0.063-1.192c0.014-5.901,0.016-11.803,0.054-17.704
	c0.032-5.215,0.172-10.43,0.129-15.644c-0.02-2.284-0.351-4.569-0.597-6.848c-0.07-0.647,0.123-0.925,0.722-1.011
	c0.779-0.113,1.576-0.178,2.328-0.396c0.883-0.257,1.09,0.184,1.106,0.908c0.019,0.786,0.004,1.572,0.004,2.656
	c0.499-0.386,0.734-0.537,0.935-0.727c5.195-4.914,13.275-3.174,15.78,3.548c2.093,5.618,1.694,11.219-1.084,16.541
	c-3.254,6.232-9.827,6.002-13.931,3.091C71.557,36.21,71.169,35.915,70.513,35.432z M70.478,26.199c0.007,0,0.015,0,0.021,0
	c0,1.073,0.113,2.161-0.024,3.216c-0.253,1.93,0.664,3.131,2.156,4.028c0.706,0.424,1.435,0.849,2.206,1.114
	c4.084,1.402,7.372-0.401,8.469-4.651c0.967-3.747,0.819-7.502-0.149-11.225c-0.632-2.426-2.092-4.101-4.614-4.438
	c-2.773-0.371-5.222,0.505-7.145,2.595c-0.474,0.516-0.849,1.333-0.879,2.029C70.413,21.308,70.478,23.755,70.478,26.199z"/>
<path fill-rule="evenodd" clip-rule="evenodd" fill="#010101" d="M133.631,25.137c-0.364,1.936-0.602,4.033-1.167,6.034
	c-1.194,4.218-4.155,6.597-8.302,7.305c-3.49,0.596-6.852,0.085-9.65-2.395c-2.253-1.995-3.142-4.72-3.616-7.593
	c-0.498-3.013-0.405-6.043,0.264-9.017c1.237-5.498,4.977-8.589,10.402-8.719c5.649-0.136,9.595,2.766,11.063,8.321
	C133.129,20.979,133.284,22.977,133.631,25.137z M128.986,25.236c-0.094-0.018-0.188-0.036-0.281-0.054
	c0.021-3.221-0.432-5.798-1.291-7.617c-1.334-2.823-3.477-3.671-5.679-3.53c-3.604,0.229-5.312,1.516-6.082,4.57
	c-1.068,4.241-0.911,8.505,0.348,12.681c0.78,2.591,3.057,4.104,5.863,4.165c2.951,0.063,5.044-1.188,5.911-3.969
	C128.402,29.473,128.598,27.324,128.986,25.236z"/>
<path fill-rule="evenodd" clip-rule="evenodd" fill="#010101" d="M178.428,33.088c2.396-7.13,4.734-14.022,7.011-20.937
	c0.293-0.891,0.677-1.219,1.584-1.14c0.97,0.085,1.951,0.02,3.099,0.02c-0.361,1.06-0.668,2.016-1.012,2.958
	c-2.765,7.595-5.554,15.182-8.287,22.789c-0.351,0.975-0.791,1.358-1.854,1.32c-2.546-0.091-2.582-0.014-3.432-2.425
	c-2.727-7.732-5.427-15.476-8.13-23.217c-0.135-0.385-0.211-0.791-0.338-1.279c1.098-0.247,2.122-0.433,3.12-0.718
	c0.697-0.199,0.933,0.115,1.123,0.709c2.254,7.007,4.521,14.01,6.786,21.013C178.175,32.424,178.271,32.659,178.428,33.088z"/>
<path fill-rule="evenodd" clip-rule="evenodd" fill="#010101" d="M151.021,34.971c0.093,0.124,0.179,0.203,0.222,0.302
	c0.845,1.959,0.649,2.476-1.394,2.879c-1.271,0.252-2.631,0.454-3.893,0.271c-3.174-0.461-4.808-2.484-4.813-5.766
	c-0.01-5.218,0.05-10.437,0.078-15.654c0.005-0.915,0.001-1.829,0.001-2.927c-0.912,0-1.652-0.035-2.388,0.01
	c-0.794,0.049-1.211-0.181-1.111-1.088c0.065-0.598,0.013-1.21,0.013-1.967c0.952,0,1.808-0.023,2.66,0.008
	c0.627,0.022,0.997-0.128,0.991-0.874c-0.012-1.756,0.095-3.516,0.021-5.268c-0.062-1.479,0.064-1.785,1.453-2.098
	c0.692-0.155,1.387-0.302,2.288-0.498c0,1.107,0,2.154,0,3.201c0.001,1.42,0.057,2.843-0.017,4.259
	c-0.054,1.028,0.493,1.256,1.296,1.261c1.769,0.013,3.536,0.004,5.527,0.004c-0.396,0.995-0.675,1.891-1.117,2.693
	c-0.137,0.249-0.714,0.331-1.093,0.342c-1.421,0.038-2.844,0.015-4.392,0.015c0,0.59,0.013,1.002-0.002,1.414
	c-0.125,3.754-0.292,7.506-0.368,11.26c-0.036,1.799,0.012,3.608,0.174,5.398c0.227,2.509,2.052,3.764,4.46,3.197
	C150.089,35.234,150.555,35.096,151.021,34.971z"/>
<path fill-rule="evenodd" clip-rule="evenodd" fill="#010101" d="M209.386,14.074c-1.075,0-1.856-0.029-2.634,0.008
	c-0.723,0.035-1.035-0.228-0.97-0.996c0.054-0.638,0.011-1.283,0.011-2.058c1.01,0,1.91,0.064,2.794-0.035
	c0.303-0.034,0.79-0.466,0.805-0.738c0.097-1.789,0.165-3.589,0.09-5.378c-0.063-1.455,0.075-1.793,1.453-2.09
	c0.693-0.149,1.387-0.294,2.278-0.483c0,1.227,0,2.392,0,3.557c0,1.266,0.063,2.536-0.019,3.796
	c-0.068,1.044,0.429,1.363,1.31,1.366c1.768,0.007,3.535,0.003,5.503,0.003c-0.399,0.993-0.694,1.883-1.126,2.697
	c-0.122,0.23-0.642,0.328-0.982,0.337c-1.462,0.035-2.925,0.016-4.355,0.016c-0.087,0.229-0.158,0.33-0.16,0.433
	c-0.082,5.404-0.158,10.809-0.232,16.213c-0.005,0.346,0.008,0.691,0.029,1.036c0.182,2.806,1.831,4.116,4.569,3.628
	c0.475-0.085,0.946-0.192,1.523-0.31c0.154,0.66,0.363,1.273,0.41,1.899c0.017,0.222-0.313,0.579-0.564,0.695
	c-1.976,0.918-4.025,1.231-6.144,0.575c-2.23-0.69-3.753-2.713-3.759-5.308c-0.011-4.79,0.11-9.58,0.168-14.371
	C209.4,17.121,209.386,15.675,209.386,14.074z"/>
<path fill-rule="evenodd" clip-rule="evenodd" fill="#010101" d="M106.571,14.817c-0.931,0.053-1.737-0.002-2.5,0.158
	c-3.131,0.657-4.786,2.819-4.806,6.522c-0.025,4.749,0.099,9.499,0.156,14.248c0.008,0.572,0.001,1.145,0.001,1.826
	c-1.396,0-2.717,0-4.12,0c-0.427-8.716,0.849-17.463-0.699-26.194c1.059-0.289,2.111-0.539,3.139-0.87
	c0.622-0.2,0.933,0,1.072,0.598c0.23,0.982,0.455,1.965,0.728,3.145c2.36-2.566,4.834-4.559,8.599-3.805
	C107.61,11.921,107.093,13.364,106.571,14.817z"/>
<g id="protiviti_copy">
	<g>
		<path fill-rule="evenodd" clip-rule="evenodd" fill="#5E7C99" d="M162.052,24.118V12.673c0-2.004,0-2.002-1.895-1.771
			c-0.224,0.027-0.451,0.018-0.677,0.035c-1.031,0.077-1.551,0.441-1.539,1.708c0.068,7.437,0.034,14.874,0.034,22.312
			c0,2.848,0,2.807,2.813,2.846c0.992,0.014,1.296-0.298,1.284-1.315C162.023,32.364,162.052,28.241,162.052,24.118z
			 M199.781,24.116V13.251c0-2.738,0.004-2.714-2.685-2.297c-1.011,0.156-1.433,0.534-1.423,1.7
			c0.061,7.436,0.031,14.872,0.031,22.309c0,2.844,0,2.802,2.817,2.841c0.997,0.014,1.291-0.309,1.279-1.32
			C199.753,32.361,199.781,28.239,199.781,24.116z M229.849,13.24c-0.01-3.514-0.257-2.409-2.788-2.229
			c-0.813,0.058-1.114,0.468-1.104,1.353c0.048,4.005,0.021,8.012,0.021,12.018v10.4c0,3.122,0,3.102,3.092,3.014
			c0.723-0.021,1.002-0.254,0.993-1.011c-0.028-2.575,0.013-5.15-0.015-7.726C229.992,23.786,229.865,18.513,229.849,13.24z
			 M230.777,2.839c0.03-1.893-0.82-2.823-2.595-2.838c-1.979-0.017-2.962,0.846-2.967,2.606c-0.005,1.841,0.979,2.847,2.788,2.851
			C229.715,5.462,230.751,4.483,230.777,2.839z M160.088,0c-1.654,0.016-2.764,1.047-2.736,2.544
			c0.029,1.62,1.347,3.069,2.793,3.071c1.521,0.002,2.593-1.188,2.59-2.873C162.73,1.049,161.704-0.015,160.088,0z M197.827,0.003
			c-1.659,0.001-2.592,0.909-2.577,2.51c0.015,1.62,1.353,3.114,2.775,3.098c1.404-0.017,2.687-1.287,2.653-2.63
			C200.637,1.321,199.374,0.002,197.827,0.003z"/>
	</g>
</g>
<text transform="matrix(1.0073 0 0 1 -2.9902 37.1357)" fill="#8B8A8A" font-family="'MetaNormal'" font-size="51.9533">my</text>
</svg>
