<?xml version="1.0" encoding="utf-8"?>
<!-- Generator: Adobe Illustrator 16.0.0, SVG Export Plug-In . SVG Version: 6.00 Build 0)  -->
<!DOCTYPE svg PUBLIC "-//W3C//DTD SVG 1.1//EN" "http://www.w3.org/Graphics/SVG/1.1/DTD/svg11.dtd">
<svg version="1.1" xmlns="http://www.w3.org/2000/svg" xmlns:xlink="http://www.w3.org/1999/xlink" x="0px" y="0px"
	 width="15.946px" height="18.643px" viewBox="0 0 15.946 18.643" enable-background="new 0 0 15.946 18.643" xml:space="preserve">
<g id="Layer_1">
</g>
<g id="Layer_2">
	<g id="Shape_8_copy">
		<g>
			<path fill-rule="evenodd" clip-rule="evenodd" fill="#5E7C99" d="M15.829,6.753c-0.079-0.076-0.183-0.176-0.265-0.256
				c-0.158-0.034-0.29-0.076-0.426-0.089c-0.156-0.015-0.315-0.004-0.473-0.004c-0.824,0-1.649,0-2.474,0c-0.081,0-0.162,0-0.249,0
				c0.026-0.131,0.065-0.237,0.065-0.343c0.004-1.676,0.006-3.352-0.003-5.026c-0.001-0.184-0.045-0.38-0.122-0.546
				C11.741,0.183,11.507-0.002,11.121,0c-1.94,0.01-3.88,0.005-5.82,0.005c-0.326,0-0.652,0-0.889,0
				C4.032,0.114,3.924,0.37,3.775,0.648c0,1.884,0,3.813,0,5.756c-0.858,0-1.706-0.001-2.553,0.001
				C0.917,6.406,0.607,6.365,0.27,6.522C0.201,6.605,0.1,6.729,0.002,6.848c0,3.725,0,7.438,0,11.151
				c0,0.035-0.006,0.072,0.002,0.105c0.009,0.042,0.025,0.084,0.044,0.123c0.136,0.283,0.353,0.418,0.688,0.417
				c4.887-0.005,9.772-0.003,14.693-0.003c0.139-0.118,0.295-0.253,0.467-0.4c0.015-0.249,0.043-0.498,0.043-0.746
				c0.003-3.28,0.002-6.561,0.001-9.841C15.94,7.359,15.982,7.06,15.829,6.753z M4.526,0.744c0.313-0.058,4.935-0.078,6.656-0.028
				c0.026,0.025,0.052,0.05,0.089,0.086c0,1.824,0,3.659,0,5.509c-0.037,0.036-0.063,0.062-0.091,0.088c-2.213,0-4.428,0-6.654,0
				C4.526,4.51,4.526,2.628,4.526,0.744z M15.201,17.904c-0.306,0.051-13.276,0.071-14.471,0.021c0-1.8,0-3.602,0-5.403
				c0-1.792,0-3.585,0-5.408c4.836,0,9.647,0,14.471,0C15.201,10.714,15.201,14.309,15.201,17.904z M7.048,13.668
				c0.239,0.203,0.521,0.306,0.838,0.334c0.313,0.028,0.578-0.099,0.855-0.209c0.391-0.155,0.533-0.499,0.723-0.813
				c-0.049-0.187,0.129-0.364,0.062-0.527c-0.057-0.136-0.044-0.264-0.064-0.377C9.36,11.899,9.292,11.718,9.17,11.58
				c-0.238-0.269-0.538-0.44-0.923-0.472c-0.166-0.014-0.304-0.09-0.494-0.012c-0.158,0.064-0.347,0.059-0.518,0.151
				c-0.185,0.101-0.31,0.249-0.448,0.387c-0.282,0.279-0.368,0.867-0.26,1.259C6.615,13.216,6.8,13.458,7.048,13.668z"/>
		</g>
	</g>
</g>
</svg>
