<?xml version="1.0" encoding="utf-8"?>
<!-- Generator: Adobe Illustrator 16.0.0, SVG Export Plug-In . SVG Version: 6.00 Build 0)  -->
<!DOCTYPE svg PUBLIC "-//W3C//DTD SVG 1.1//EN" "http://www.w3.org/Graphics/SVG/1.1/DTD/svg11.dtd">
<svg version="1.1" xmlns="http://www.w3.org/2000/svg" xmlns:xlink="http://www.w3.org/1999/xlink" x="0px" y="0px" width="1920px"
	 height="522.313px" viewBox="0 0 1920 522.313" enable-background="new 0 0 1920 522.313" xml:space="preserve">
<g id="Layer_3" display="none">
	<g id="Layer_2_3_" display="inline">
		<path fill="#545555" d="M0,521.313c684.667,0,1235.333,0,1920,0c0-109,0.063-212.655,0-211.546c-22.063,0-30.223,0-52.293,0
			c0-13.016,0-25.8,0-38.768c-11.479,0-22.784,0.001-34.089-0.007c-0.146,0-0.306-0.076-0.431-0.161
			c-0.134-0.091-0.229-0.231-0.524-0.547c0-5.923,0-12.041,0-18.327c-1.965,0-3.754,0-5.707,0c0-22.623,0-45.071,0-67.354
			c-3.509-2.143-6.815-4.162-9.685-5.914c-0.679-1.842-1.212-3.289-1.666-4.523c-7.363,0-14.48,0-21.429,0
			c-0.521,0.521-0.875,0.874-1.403,1.404c0,1.274,0,2.728,0,4.555c-4.634,2.109-9.266,4.219-14.063,6.404
			c0,23.047,0,46.162,0,69.392c-3.729,0.255-7.335-0.146-11.045,0.24c0,19.136,0,37.916,0,56.735c-12.296,0-24.41,0-36.696,0
			c0-32.549,0-64.996,0-97.272c-0.641-0.642-1.112-1.112-1.759-1.761c-3.277,0-6.732,0-10.366,0c0-28.145,0-56.11-0.007-84.079
			c0-0.146-0.071-0.306-0.15-0.433c-0.087-0.139-0.222-0.246-0.489-0.531c-2.314,0-4.771,0-7.384,0c0-19.96,0-39.742,0-59.876
			c-4.069,0-7.983,0-12.049,0c0-22.468,0-44.583,0-66.717c-2.749,0-5.317,0-8.051,0c0,19.345,0,38.46,0,57.516
			c-2.085,0-3.984,0-5.87,0c0-20.419,0-40.582,0-60.744c-2.333,0-4.667,0-7,0c0,23.274,0,46.549,0,69.997c-2.438,0-4.557,0-6.316,0
			c-2.244,1.226-1.668,3.037-1.671,4.622c-0.021,15.99-0.013,31.979-0.013,47.97c0,1.109,0,2.22,0,2.956
			c-5.354,3.798-10.255,7.276-15.166,10.763c0,25.315,0,50.42,0,75.697c-4.612,0-9.064,0-13.339,0
			c-0.527,0.527-0.881,0.881-1.563,1.563c0,35.558,0,71.443,0,107.314c-11.774,0-23.224,0-35.019,0c0-4.682,0-9.262,0-13.98
			c-19.127,0-37.903,0-56.836,0c0-27.271,0-54.375,0-81.435c-3.86-3.608-7.606-7.11-10.47-9.784
			c-1.093-5.375-1.938-9.525-2.776-13.654c-0.933,0-1.59,0-2.271,0c-2.035,3.593-4.091,7.215-6.22,10.972
			c-1.278,0-2.789-0.147-4.257,0.041c-1.538,0.196-3.036,0.718-4.752,1.147c-0.475-0.91-1.159-1.697-1.295-2.571
			c-0.938-6.025-3.17-11.71-4.563-17.612c-0.008-0.037-0.313-0.005-0.479-0.005c-1,0.333-2,0.667-3,1
			c-1.544,3.435-1.901,7.198-2.96,10.771c-1.188,4.012-2.072,8.112-3.045,12.002c-3.164,0.56-5.964,1.055-8.656,1.53
			c-0.449,1.833-1.149,3.632-1.283,5.472c-0.239,3.377-0.11,6.721-0.931,10.11c-0.741,3.071-0.358,6.345-0.948,9.587
			c-0.979,5.41-0.853,11.023-1.168,16.553c-0.056,0.947-0.009,1.897-0.009,3.021c-8.487,0-16.605,0-24.561,0
			c-0.601,2.137-1.144,4.074-1.67,5.953c-2.426,0-4.603,0.135-6.752-0.041c-1.875-0.152-3.683,0.342-5.689-0.775
			c-1.617-0.899-4.137-0.184-5.926-0.184c-1.241,4.027-1.684,7.712-1.383,11.445c0.209,2.595-0.566,4.731-2.525,6.555
			c-3.756,0-7.59-0.171-11.401,0.049c-3.662,0.211-7.3,0.827-11.246,1.301c-1.276,2.844-2.604,5.799-4.021,8.949
			c-2.463-0.553-4.592-1.029-6.614-1.484c-0.408-11.849-0.955-23.52-1.17-35.196c-0.199-10.828-0.042-21.663-0.042-32.496
			c0-1.297,0-2.595,0-4.065c-2.934-0.226-5.618,0.072-8.309-0.918c-1.905-0.703-4.292-0.007-6.444-0.174
			c-2.043-0.158-4.049-0.759-6.091-0.936c-3.532-0.303-7.053,0.207-10.626-0.885c-2.438-0.746-5.304,0.027-7.951-0.19
			c-2.7-0.224-5.286-1.247-8.093-0.981c-5.017,0.473-10.11-0.738-15.104,0.969c-2.227,0.761-4.646-0.244-7.146,0.873
			c-2.158,0.967-4.968,0.521-7.531,1.027c-4.911,0.973-10.008,1.003-15.215,1.439c-0.738,0.643-1.713,1.49-2.15,1.869
			c0.271,2.352,0.633,4.051,0.637,5.75c0.039,20.33,0.024,40.662,0.024,60.994c0,0.961,0,1.924,0,2.866c-16.847,0-33.415,0-50,0
			c0-19.567,0-38.897,0-58.226c0-4.666,0.78-9.51-0.226-13.947c-0.959-4.24-3.699-8.102-5.813-12.045
			c-0.893-1.67-2.176-3.131-3.178-4.541c-2.813,0-5.313-0.034-7.813,0.01c-2.584,0.045-5.073-0.508-7.604-0.857
			c-4.088-0.564-8.334-0.426-12.471-0.076c-4.309,0.363-8.361-1.131-12.593-1.086c-4.498,0.047-8.998,0.011-13.498,0.011
			c-1,0-2.255,0.39-2.955-0.067c-2.78-1.817-5.715-0.457-8.715-1.062c-0.438,1.077-0.957,1.905-1.095,2.793
			c-0.174,1.14,0.398,2.604-0.128,3.438c-1.364,2.16-0.661,4.431-0.929,6.638c-0.27,2.202-0.865,4.385-0.936,6.589
			c-0.096,3.057-0.01,6.089-1.396,8.333c-9.349,8.054-18.286,15.756-26.813,23.101c-11.285,0-22.055,0-32.59,0
			c-0.555-2.734-1.055-5.199-1.596-7.871c-7.219,0.657-14.414-0.662-21.609,0.986c-3.168,0.727-6.655,0.335-9.967,0.063
			c-3.471-0.284-6.537,1.634-9.669,1.062c-0.56,2.867-1.04,5.335-1.508,7.733c-2.344,0.443-4.491,0.998-6.675,1.225
			c-2.22,0.229-4.385,0.395-6.613,0.891c-3.908,0.871-8.021,0.823-12.053,1.143c-0.661,0.053-1.559-0.271-1.962,0.054
			c-2.396,1.938-4.984,0.452-7.461,1.076c-1.271-2.952-2.366-5.506-3.491-8.122c-5.37,0-10.716,0.32-16.004-0.09
			c-5.289-0.411-10.248,1.686-15.135,1.078c-2.329,2.328-4.332,4.332-6.798,6.798c-0.315,5.997-0.657,12.476-1.019,19.304
			c-2.834,0-5.752,0-8.813,0c0,15.805,0,31.256,0,47.059c-7.078,0-13.988,0-21.058,0c0,7.139,0,13.926,0,20.752
			c-8.961,0-17.744,0-26.703,0c0-19.885,0-39.666,0-59.533c-4.4-3.461-9.247-5.979-14.169-8.375
			c-1.146-0.559-2.195-1.057-3.591-1.04c-8.651,0.099-17.306,0.05-26.465,0.05c-2.409,5.201-4.875,10.521-7.36,15.889
			c-0.693,0-1.479,0-2.038,0c-3.954-5.125-7.771-10.069-11.396-14.769c-20.941,0-41.394,0-62.192,0c0,15.688,0,31.259,0,47.001
			c-6.139,0-11.925,0-17.88,0c0,17.625,0,35.076,0,52.314c-2.308,2.316-4.422,4.443-6.526,6.561c-0.681,0-1.346,0-1.366,0
			c-2.543-2.543-4.762-4.76-6.727-6.725c0.203-1.779,0.563-3.479,0.564-5.178c0.042-16.666,0.082-33.33-0.003-49.996
			c-0.033-6.662,0.789-13.404-1.407-20.143c-4.424,0.313-9.008-0.656-13.426,1.043c-8.632,0-17.264,0-25.844,0
			c-6.211-9.309-11.07-19.189-17.671-28.271c-3.769,0.34-7.451,0.672-11.384,1.026c-8.14,10.671-16.263,21.319-24.356,31.935
			c0,16.443,0,32.742,0,49.094c-1.692,0-3.262,0-4.995,0c0-28.002,0-55.785,0-83.92c-4.077,0-7.993,0-12.058,0
			c0-2.145,0-3.938,0-5.764c-4.628,0-9.079,0-12.935,0c-3.307,1.371-0.957,4.193-2.242,5.743c-7.572,0-15.024,0-22.518,0
			c-0.115-1.728-0.222-3.3-0.338-5.028c-11.116,0-21.896,0-32.854,0c0-2.306,0-4.424,0-6.597c-6.748,0-13.316,0-20.06,0
			c0,5.335,0,10.454,0,15.536c-6.748,0-13.317,0-19.887,0c0-18.908,0-37.572,0-55.77c-1.146-1.801-2.436-3.149-2.934-4.746
			c-1.249-4.004-3.198-7.682-4.819-11.51c-3.086-7.287-7.451-13.896-10.979-20.949c-0.486-0.977-1.025-1.928-1.541-2.889
			c-3.236,0.491-6.238,0.946-9.428,1.432c-0.212,0.412-0.475,1.169-0.932,1.777c-3.152,4.201-6.5,8.271-9.478,12.592
			c-2.01,2.914-3.788,5.94-5.095,9.382c-1.357,3.579-2.592,7.248-4.104,10.792c-1.54,3.607-2.793,7.249-2.771,11.381
			c0.143,25.497,0.072,50.995,0.063,76.492c0,1.096-0.106,2.188-0.167,3.334c-2.683-0.486-5.025-0.914-7.642-1.391
			c-0.236-0.234-0.709-0.707-1.352-1.35c0-67.943,0-136.057,0-204c-0.521-0.522-0.875-0.876-1.334-1.334
			c-2.547,0-5.205,0.108-7.849-0.045c-1.377-0.08-3.182-0.184-4.006-1.036c-2.614-2.708-6.547-3.124-9.228-5.767
			c-0.844-0.832-2.729-1.269-4.457-1.222c-6.479,0.174-12.979,0.07-18.543,0.07c-10.694,4.607-20.601,8.875-30.532,13.155
			c0,74.082,0,147.861,0,221.845c-0.972,0-1.777,0.023-2.584-0.006c-0.772-0.029-1.544-0.111-2.308-0.168
			c0.523-11.258-1.561-14.822-5.414-20.826c-3.677,0-7.49,0.152-11.288-0.043c-3.678-0.188-7.337-0.73-11.175-1.137
			c0-2.146,0-4.27,0-6.131c-2.575-2.155-5.214-2.174-7.601-0.574c-1.423,0.955-2.495,2.546-3.476,4.015
			c-1.743,2.611-4.002,4.031-7.191,3.879c-1.148-0.057-2.302-0.01-3.472-0.01c-0.924,2.389-1.813,4.686-2.708,7
			c-4.426,0-8.754-0.105-13.072,0.061c-1.424,0.057-2.447-0.529-3.588-1.061c-1.605,0-3.211,0-4.761,0
			c-0.476-1.432-0.956-2.566-1.178-3.75c-0.065-0.346,0.605-0.828,0.938-1.25c0.121-1.447-0.053-2.82-1-4
			c-2.763-0.063-5.661,0.545-8-1.617c0.129-2.159-0.541-4.444,1-6.383c-2.667,0-5.333,0-8,0c-3.533-0.188-7.021,0.09-10.602-0.832
			c-3.115-0.804-6.601-0.168-9.897-0.168c-1.759,1.662-0.707,4.815-3.418,6.101c-1.389-0.402-2.885-0.834-4.354-1.261
			c-0.593,0.56-1.066,1.007-1.43,1.349c-0.509,4.918-1.004,9.709-1.531,14.813c-0.89,0-1.857,0.033-2.821-0.004
			c-8.176-0.324-16.35-0.67-24.525-0.988c-1.444-0.055-2.893-0.008-4.494-0.008c0-2.184,0-3.971,0-5.91
			c-1.947,0-4.127-0.648-5.429,0.145c-2.292,1.396-4.764-0.143-6.628,0.885c-2.253,1.242-4.371,0.598-6.462,0.926
			c-0.798-1.932-1.12-4.004-2.313-5.236c-1.189-1.229-3.25-1.614-5.03-2.415c-0.267-1.978-2.423-3.457-2.199-5.918
			c0.037-0.418-1.442-1.026-2.267-1.463c-2.649-1.4-5.609-0.921-8.205-1.017c-2.026-2.912-3.834-5.511-5.562-7.994
			c-2.619,0-4.944-0.06-7.264,0.019c-2.267,0.074-4.224-1.707-6.569-1.019c-1.601,0-3.2,0-4.911,0
			c-1.278,2.451-2.467,4.729-3.802,7.291c-2.484-2.252-5.48-0.978-8.287-1.291c-0.618,0-1.236,0-2.094,0
			c0.831,6.916-1.319,13.284-0.989,19.874c0.364,7.277,0.083,14.588,0.083,22.004c-1.697,0-3.151,0-4.384,0
			c-1.825-1.313-3.512-2.524-5.022-3.611c-3.952-1.266-7.276,0.837-10.717,1.844c-3.078,0.898-4.646,3.832-6.086,6.592
			c-0.068,0.129-0.244,0.201-0.46,0.373c-4.082-0.91-8.084,2.215-12.469,0.488c0-8.143,0-16.26,0-24.617
			c-1.372-0.521-2.633-1-3.951-1.5c-0.307-3.072-0.666-6.1-0.895-9.135c-0.216-2.879-0.072-5.701-0.846-8.627
			c-0.776-2.934-0.171-6.232-0.171-9.183c-0.541-0.542-0.895-0.896-1.374-1.374c-11.987,0-24.101,0-36.244,0
			c-0.44,0.438-0.913,0.905-1.382,1.37c0,6.337,0,12.667,0,19.076c-1.45,0.998-2.287,3.428-5,2.014c0-2.213-0.207-4.547,0.055-6.823
			c0.293-2.539-1.259-4.48-1.359-6.978c-8.422,0-16.527,0-24.79,0c0-25.325,0-50.435,0-75.626c-3.079-0.881-6.025-1.723-8.979-2.568
			c0.658-5.624-1.248-10.839-1.027-16.289c0.371-9.146,0.105-18.32,0.081-27.481c0-0.269-0.3-0.534-0.5-0.865
			c-0.43,0.078-0.884,0.161-1.274,0.231c-0.707,2.61,0.085,5.142-1.028,7.739c-0.938,2.191-0.155,4.981-1.073,7.544
			c-1.018,2.838,0.413,5.942-0.893,9.129c-1.08,2.637-0.231,5.963-1.088,9.029c-0.929,3.325-0.898,6.919-1.304,10.557
			c-3.822-0.854-7.317-1.637-10.515-2.352c-0.446-7.477-0.876-14.652-1.305-21.832c-1,0-2,0-3,0
			c-0.284,0.117-0.775,0.188-0.815,0.361c-0.144,0.623-0.229,1.289-0.17,1.926c0.665,7.216-1.229,14.279-1.073,21.632
			c-2.949,0.489-5.751,0.954-9.023,1.496c-1.243,0.614-0.916,2.196-0.917,3.659c-0.002,11.98-0.001,23.962-0.001,35.941
			c0,1.623,0,3.246,0,4.787c-6.825,0.502-13.288,0.977-19.843,1.454c-0.764,8.786,0.229,17.607-0.95,26.462
			c-1.002,7.521-0.236,15.28-0.198,22.937c0.037,7.535-1.564,14.979-1.044,22.553c0.678,9.848-0.713,19.644-1.147,29.543
			c-2.899,0.537-5.831,1.078-8.548,1.582"/>
	</g>
	<g id="Layer_1_3_" display="inline">
		<path fill="#8A8A8A" d="M0,363.407c11.479,0-4.035-0.094,7.27-0.103c0.145,0,0.305-0.075,0.429-0.161
			c0.133-0.091,0.229-0.23,0.526-0.547c0-5.923,0-12.041,0-18.327c1.965,0,3.753,0,5.708,0c0-22.621,0-45.069,0-67.354
			c3.507-2.144,6.815-4.162,9.683-5.913c0.678-1.842,1.211-3.289,1.666-4.523c7.364,0,14.482,0,21.428,0
			c0.521,0.521,0.875,0.875,1.404,1.403c0,1.275,0,2.729,0,4.556c4.633,2.108,9.265,4.22,14.063,6.403c0,23.048,0,46.162,0,69.394
			c3.729,0.255,7.334-0.146,11.044,0.238c0,19.138,0,37.916,0,56.735c12.294,0,24.411,0,36.696,0c0-32.549,0-64.995,0-97.272
			c0.641-0.641,1.112-1.11,1.759-1.76c3.277,0,6.732,0,10.366,0c0-28.144,0-56.111,0.006-84.08c0-0.146,0.072-0.306,0.151-0.433
			c0.086-0.14,0.221-0.246,0.49-0.531c2.315,0,4.771,0,7.382,0c0-19.96,0-39.741,0-59.876c4.071,0,7.985,0,12.05,0
			c0-22.468,0-44.583,0-66.717c2.749,0,5.317,0,8.05,0c0,19.345,0,38.46,0,57.516c2.085,0,3.985,0,5.87,0
			c0-20.419,0-40.582,0-60.744c2.333,0,4.667,0,7,0c0,23.274,0,46.548,0,69.998c2.438,0,4.557,0,6.317,0
			c2.244,1.226,1.668,3.036,1.67,4.621c0.021,15.99,0.013,31.979,0.013,47.971c0,1.108,0,2.22,0,2.955
			c5.352,3.799,10.254,7.277,15.166,10.764c0,25.314,0,50.42,0,75.695c4.613,0,9.065,0,13.339,0c0.527,0.527,0.88,0.881,1.563,1.563
			c0,35.557,0,71.443,0,107.314c11.775,0,23.222,0,35.017,0c0-4.685,0-9.264,0-13.982c19.126,0,37.903,0,56.836,0
			c0-27.269,0-54.374,0-81.433c3.86-3.608,7.607-7.111,10.468-9.785c1.093-5.374,1.938-9.525,2.777-13.653c0.932,0,1.59,0,2.271,0
			c2.036,3.593,4.089,7.214,6.218,10.972c1.28,0,2.79-0.146,4.257,0.041c1.539,0.196,3.037,0.719,4.752,1.146
			c0.473-0.909,1.159-1.697,1.295-2.571c0.939-6.024,3.17-11.71,4.561-17.612c0.009-0.037,0.313-0.004,0.48-0.004
			c1,0.332,2,0.666,3,1c1.544,3.436,1.901,7.197,2.96,10.771c1.188,4.011,2.072,8.112,3.044,12.001
			c3.164,0.56,5.963,1.055,8.657,1.531c0.449,1.833,1.151,3.632,1.282,5.472c0.241,3.376,0.111,6.72,0.931,10.11
			c0.742,3.069,0.359,6.345,0.948,9.587c0.98,5.41,0.852,11.021,1.169,16.553c0.055,0.946,0.008,1.897,0.008,3.021
			c8.488,0,16.607,0,24.56,0c0.599,2.138,1.142,4.073,1.669,5.952c2.427,0,4.603,0.137,6.753-0.041
			c1.875-0.151,3.682,0.344,5.69-0.774c1.617-0.9,4.136-0.185,5.925-0.185c1.243,4.027,1.686,7.712,1.383,11.445
			c-0.209,2.595,0.566,4.733,2.525,6.555c3.756,0,7.59-0.171,11.402,0.051c3.662,0.211,7.3,0.825,11.247,1.301
			c1.275,2.843,2.604,5.799,4.02,8.948c2.463-0.555,4.591-1.029,6.614-1.483c0.408-11.85,0.956-23.521,1.17-35.198
			c0.199-10.828,0.042-21.663,0.042-32.496c0-1.297,0-2.595,0-4.063c2.932-0.228,5.618,0.071,8.307-0.919
			c1.907-0.702,4.292-0.007,6.446-0.173c2.042-0.159,4.048-0.761,6.09-0.937c3.532-0.304,7.053,0.206,10.626-0.886
			c2.438-0.745,5.304,0.028,7.952-0.19c2.7-0.223,5.286-1.247,8.092-0.98c5.018,0.473,10.111-0.737,15.104,0.969
			c2.228,0.761,4.647-0.243,7.146,0.874c2.16,0.966,4.969,0.521,7.532,1.027c4.911,0.972,10.008,1.003,15.214,1.438
			c0.739,0.645,1.714,1.49,2.151,1.869c-0.271,2.352-0.632,4.051-0.636,5.75c-0.04,20.331-0.025,40.662-0.025,60.993
			c0,0.962,0,1.924,0,2.868c16.846,0,33.415,0,50,0c0-19.569,0-38.897,0-58.229c0-4.666-0.78-9.509,0.225-13.947
			c0.959-4.238,3.7-8.101,5.813-12.044c0.893-1.67,2.176-3.132,3.179-4.541c2.813,0,5.314-0.033,7.813,0.01
			c2.584,0.046,5.073-0.508,7.604-0.856c4.088-0.565,8.334-0.426,12.473-0.077c4.307,0.363,8.36-1.13,12.592-1.086
			c4.499,0.047,8.999,0.012,13.499,0.012c1,0,2.254,0.391,2.955-0.067c2.78-1.817,5.714-0.457,8.714-1.062
			c0.438,1.076,0.958,1.904,1.094,2.793c0.175,1.141-0.396,2.604,0.128,3.438c1.364,2.161,0.661,4.431,0.929,6.638
			c0.269,2.203,0.865,4.385,0.936,6.589c0.095,3.058,0.01,6.089,1.396,8.333c9.35,8.056,18.287,15.757,26.813,23.103
			c11.286,0,22.055,0,32.59,0c0.554-2.735,1.054-5.199,1.595-7.871c7.22,0.657,14.415-0.662,21.611,0.985
			c3.167,0.727,6.656,0.336,9.966,0.063c3.471-0.285,6.538,1.633,9.668,1.061c0.561,2.867,1.04,5.336,1.508,7.734
			c2.345,0.443,4.491,0.998,6.675,1.225c2.221,0.229,4.386,0.395,6.613,0.891c3.908,0.871,8.022,0.824,12.053,1.143
			c0.661,0.055,1.56-0.271,1.963,0.056c2.396,1.938,4.983,0.45,7.461,1.074c1.27-2.95,2.364-5.506,3.489-8.122
			c5.371,0,10.718,0.32,16.006-0.09c5.29-0.411,10.247,1.688,15.135,1.078c2.329,2.329,4.332,4.332,6.798,6.798
			c0.316,5.997,0.657,12.477,1.019,19.306c2.834,0,5.752,0,8.813,0c0,15.804,0,31.255,0,47.057c7.078,0,13.988,0,21.058,0
			c0,7.139,0,13.925,0,20.752c8.961,0,17.743,0,26.702,0c0-19.884,0-39.667,0-59.533c4.401-3.461,9.247-5.979,14.169-8.375
			c1.146-0.559,2.195-1.056,3.592-1.04c8.65,0.101,17.306,0.052,26.465,0.052c2.41,5.199,4.875,10.521,7.359,15.888
			c0.694,0,1.479,0,2.038,0c3.954-5.124,7.771-10.068,11.397-14.77c20.94,0,41.393,0,62.191,0c0,15.688,0,31.261,0,47
			c6.14,0,11.925,0,17.879,0c0,17.626,0,35.076,0,52.314c2.31,2.319,4.425,4.445,6.527,6.561c0.682,0,1.346,0,1.367,0
			c2.543-2.542,4.761-4.76,6.726-6.724c-0.203-1.779-0.562-3.478-0.563-5.177c-0.042-16.665-0.082-33.33,0.003-49.995
			c0.033-6.664-0.79-13.406,1.407-20.146c4.424,0.314,9.008-0.654,13.426,1.045c8.631,0,17.263,0,25.843,0
			c6.211-9.308,11.071-19.189,17.671-28.271c3.77,0.34,7.451,0.672,11.385,1.027c8.14,10.67,16.263,21.316,24.355,31.932
			c0,16.445,0,32.745,0,49.095c1.694,0,3.262,0,4.996,0c0-28.002,0-55.785,0-83.92c4.077,0,7.993,0,12.057,0
			c0-2.145,0-3.937,0-5.763c4.628,0,9.079,0,12.936,0c3.306,1.371,0.957,4.194,2.242,5.743c7.571,0,15.023,0,22.518,0
			c0.115-1.729,0.221-3.299,0.338-5.029c11.116,0,21.896,0,32.852,0c0-2.305,0-4.424,0-6.596c6.748,0,13.317,0,20.061,0
			c0,5.335,0,10.455,0,15.537c6.749,0,13.319,0,19.887,0c0-18.909,0-37.573,0-55.771c1.146-1.801,2.437-3.147,2.934-4.746
			c1.25-4.003,3.198-7.681,4.819-11.509c3.086-7.288,7.451-13.897,10.979-20.95c0.485-0.976,1.023-1.927,1.541-2.889
			c3.235,0.492,6.236,0.947,9.428,1.432c0.211,0.413,0.473,1.17,0.93,1.777c3.154,4.201,6.5,8.271,9.479,12.593
			c2.009,2.913,3.788,5.94,5.094,9.382c1.358,3.578,2.592,7.247,4.104,10.791c1.541,3.608,2.793,7.249,2.771,11.381
			c-0.142,25.497-0.073,50.995-0.063,76.492c0,1.097,0.105,2.189,0.166,3.334c2.684-0.485,5.025-0.914,7.643-1.39
			c0.236-0.236,0.708-0.707,1.35-1.349c0-67.943,0-136.059,0-204c0.522-0.522,0.876-0.877,1.334-1.334
			c2.548,0,5.206,0.107,7.851-0.045c1.377-0.08,3.181-0.185,4.005-1.037c2.614-2.707,6.547-3.123,9.227-5.767
			c0.846-0.832,2.729-1.269,4.457-1.222c6.492,0.173,12.99,0.068,18.558,0.068c10.692,4.607,20.6,8.875,30.531,13.155
			c0,74.081,0,147.86,0,221.845c0.972,0,1.777,0.022,2.584-0.007c0.772-0.026,1.543-0.108,2.308-0.168
			c-0.524-11.257,1.56-14.82,5.414-20.825c3.677,0,7.489,0.151,11.286-0.043c3.68-0.188,7.339-0.729,11.177-1.137
			c0-2.146,0-4.269,0-6.132c2.573-2.154,5.214-2.173,7.601-0.572c1.424,0.954,2.495,2.545,3.477,4.017
			c1.744,2.609,4.002,4.029,7.19,3.878c1.148-0.058,2.304-0.011,3.474-0.011c0.924,2.391,1.813,4.688,2.707,7
			c4.427,0,8.754-0.104,13.072,0.062c1.424,0.055,2.446-0.531,3.588-1.062c1.604,0,3.211,0,4.762,0
			c0.476-1.433,0.955-2.565,1.178-3.75c0.064-0.346-0.605-0.827-0.938-1.25c-0.121-1.445,0.053-2.818,1-4
			c2.762-0.063,5.66,0.546,8-1.615c-0.131-2.16,0.541-4.444-1-6.385c2.666,0,5.332,0,8,0c3.531-0.188,7.021,0.091,10.602-0.831
			c3.115-0.804,6.602-0.169,9.896-0.169c1.76,1.662,0.707,4.814,3.418,6.101c1.39-0.401,2.885-0.834,4.354-1.259
			c0.593,0.559,1.064,1.005,1.43,1.347c0.51,4.918,1.006,9.709,1.531,14.813c0.891,0,1.855,0.032,2.821-0.006
			c8.176-0.322,16.35-0.67,24.524-0.985c1.443-0.058,2.894-0.009,4.494-0.009c0-2.185,0-3.972,0-5.91
			c1.946,0,4.127-0.649,5.428,0.144c2.293,1.396,4.766-0.142,6.63,0.885c2.253,1.242,4.37,0.599,6.462,0.926
			c0.798-1.933,1.12-4.005,2.313-5.234c1.189-1.229,3.25-1.615,5.03-2.416c0.269-1.978,2.423-3.458,2.199-5.918
			c-0.037-0.419,1.44-1.028,2.267-1.464c2.649-1.399,5.609-0.919,8.205-1.018c2.026-2.911,3.834-5.51,5.563-7.991
			c2.619,0,4.943-0.062,7.265,0.018c2.267,0.075,4.224-1.707,6.569-1.018c1.601,0,3.199,0,4.91,0
			c1.277,2.449,2.467,4.729,3.803,7.291c2.482-2.255,5.479-0.979,8.287-1.291c0.617,0,1.234,0,2.094,0
			c-0.831,6.916,1.318,13.281,0.988,19.872c-0.363,7.276-0.082,14.588-0.082,22.005c1.695,0,3.149,0,4.384,0
			c1.825-1.313,3.512-2.525,5.021-3.611c3.952-1.266,7.276,0.836,10.719,1.842c3.078,0.9,4.646,3.832,6.086,6.591
			c0.066,0.131,0.244,0.202,0.459,0.374c4.082-0.911,8.084,2.214,12.47,0.487c0-8.141,0-16.258,0-24.617
			c1.372-0.521,2.633-0.999,3.951-1.499c0.307-3.072,0.666-6.099,0.896-9.134c0.215-2.878,0.071-5.701,0.847-8.626
			c0.774-2.936,0.17-6.235,0.17-9.184c0.541-0.542,0.896-0.896,1.375-1.374c11.985,0,24.101,0,36.244,0
			c0.438,0.437,0.911,0.903,1.381,1.369c0,6.339,0,12.668,0,19.074c1.451,0.998,2.287,3.431,5,2.016
			c0-2.212,0.207-4.546-0.056-6.824c-0.293-2.537,1.261-4.479,1.359-6.978c8.422,0,16.527,0,24.79,0c0-25.323,0-50.435,0-75.627
			c3.079-0.881,6.024-1.723,8.979-2.566c-0.658-5.625,1.248-10.841,1.025-16.289c-0.371-9.147-0.104-18.32-0.081-27.481
			c0-0.269,0.3-0.533,0.5-0.865c0.431,0.078,0.884,0.162,1.273,0.231c0.707,2.609-0.084,5.142,1.028,7.739
			c0.938,2.189,0.154,4.98,1.072,7.543c1.018,2.839-0.413,5.941,0.893,9.13c1.08,2.636,0.231,5.962,1.088,9.029
			c0.931,3.323,0.898,6.918,1.306,10.556c3.822-0.854,7.315-1.636,10.515-2.351c0.446-7.478,0.877-14.653,1.307-21.833c1,0,2,0,3,0
			c0.283,0.117,0.773,0.188,0.813,0.361c0.146,0.622,0.229,1.289,0.171,1.926c-0.666,7.215,1.229,14.278,1.072,21.633
			c2.948,0.487,5.751,0.953,9.021,1.495c1.244,0.613,0.916,2.195,0.918,3.658c0.002,11.981,0,23.962,0,35.942
			c0,1.623,0,3.246,0,4.787c6.826,0.501,13.289,0.975,19.845,1.454c0.764,8.786-0.229,17.605,0.948,26.461
			c1.002,7.521,0.236,15.28,0.199,22.936c-0.037,7.535,1.563,14.979,1.043,22.553c-0.678,9.85,0.713,19.645,1.146,29.545
			c2.898,0.534,5.832,1.077,8.549,1.58c0.938,1.956,1.801,3.76,2.656,5.547c0.793,0,1.576,0,2.139,0
			c2.605-3.052,0.773-6.736,1.781-9.878c0.693,0,1.193,0,1.691,0c0.479,0.381,0.957,0.761,2,1.589c0-1.707,0-2.647,0-3.589
			c0-36,0-72,0-108c0-0.613,0-1.229,0-1.878c2.235-0.108,4.135-0.202,6-0.296c0-0.836,0-1.332,0-1.826
			c2.105-0.171,0.116-2.488,1.651-3.026c3.267,0.276,6.718-0.657,9.941,1.121c0.97-1.441,1.849-2.749,2.672-3.977
			c3.589,0,7.032,0,10.405,0c1.925,2.381,4.427,3.178,7.029,2.909c1.334,2.479,1.334,2.479,3.739,3.021
			c1.806-3.219,6.458-1.186,8.53-4.774c-0.256-2.182,0.475-4.368,2.293-6.039c11.621,0,4.979-0.017,16.689-0.017
			c0,2.354,0,60.781,0,192.781c-684.668,0-1235.334,0-1920,0"/>
	</g>
</g>
<g id="Layer_1" display="none">
	<g id="Layer_2" display="inline">
		<path fill="#545555" d="M0,522.313c684.667,0,1235.333,0,1920,0c0-109,0.063-212.655,0-211.546c-22.063,0-30.223,0-52.293,0
			c0-13.016,0-25.8,0-38.768c-11.479,0-22.784,0.001-34.089-0.007c-0.146,0-0.306-0.076-0.431-0.161
			c-0.134-0.091-0.229-0.231-0.524-0.547c0-5.923,0-12.041,0-18.327c-1.965,0-3.754,0-5.707,0c0-22.623,0-45.071,0-67.354
			c-3.509-2.142-6.815-4.162-9.685-5.913c-0.679-1.842-1.212-3.289-1.666-4.524c-7.363,0-14.48,0-21.429,0
			c-0.521,0.521-0.875,0.874-1.403,1.404c0,1.275,0,2.728,0,4.555c-4.634,2.109-9.266,4.219-14.063,6.404
			c0,23.047,0,46.162,0,69.392c-3.729,0.255-7.335-0.145-11.045,0.24c0,19.136,0,37.916,0,56.735c-12.296,0-24.41,0-36.696,0
			c0-32.549,0-64.997,0-97.272c-0.641-0.641-1.112-1.112-1.759-1.76c-3.277,0-6.732,0-10.366,0c0-28.145,0-56.111-0.007-84.08
			c0-0.146-0.071-0.306-0.15-0.433c-0.087-0.139-0.222-0.246-0.489-0.531c-2.314,0-4.771,0-7.384,0c0-19.96,0-39.742,0-59.876
			c-4.069,0-7.983,0-12.049,0c0-22.468,0-44.583,0-66.717c-2.749,0-5.317,0-8.051,0c0,19.345,0,38.46,0,57.516
			c-2.085,0-3.984,0-5.87,0c0-20.419,0-40.582,0-60.744c-2.333,0-4.667,0-7,0c0,23.274,0,46.549,0,69.997c-2.438,0-4.557,0-6.316,0
			c-2.244,1.226-1.668,3.037-1.671,4.622c-0.021,15.99-0.013,31.979-0.013,47.97c0,1.109,0,2.22,0,2.956
			c-5.354,3.798-10.255,7.277-15.166,10.763c0,25.315,0,50.42,0,75.697c-4.612,0-9.064,0-13.339,0
			c-0.527,0.527-0.881,0.881-1.563,1.563c0,35.557,0,71.443,0,107.314c-11.774,0-23.224,0-35.019,0c0-4.682,0-9.262,0-13.98
			c-19.127,0-37.903,0-56.836,0c0-27.271,0-54.375,0-81.435c-3.86-3.608-7.606-7.111-10.47-9.785
			c-1.093-5.374-1.938-9.525-2.776-13.653c-0.933,0-1.59,0-2.271,0c-2.035,3.592-4.091,7.214-6.22,10.971
			c-1.278,0-2.789-0.147-4.257,0.041c-1.538,0.197-3.036,0.718-4.752,1.147c-0.475-0.909-1.159-1.697-1.295-2.571
			c-0.938-6.025-3.17-11.71-4.563-17.612c-0.008-0.037-0.313-0.005-0.479-0.005c-1,0.333-2,0.667-3,1
			c-1.544,3.435-1.901,7.198-2.96,10.771c-1.188,4.011-2.072,8.112-3.045,12.001c-3.164,0.56-5.964,1.055-8.656,1.531
			c-0.449,1.833-1.149,3.632-1.283,5.472c-0.239,3.376-0.11,6.72-0.931,10.11c-0.741,3.071-0.358,6.345-0.948,9.587
			c-0.979,5.41-0.853,11.023-1.168,16.553c-0.056,0.947-0.009,1.897-0.009,3.021c-8.487,0-16.605,0-24.561,0
			c-0.601,2.137-1.144,4.074-1.67,5.953c-2.426,0-4.603,0.135-6.752-0.041c-1.875-0.152-3.683,0.342-5.689-0.775
			c-1.617-0.899-4.137-0.184-5.926-0.184c-1.241,4.027-1.684,7.712-1.383,11.445c0.209,2.595-0.566,4.731-2.525,6.555
			c-3.756,0-7.59-0.171-11.401,0.049c-3.662,0.211-7.3,0.827-11.246,1.301c-1.276,2.844-2.604,5.799-4.021,8.949
			c-2.463-0.553-4.592-1.029-6.614-1.484c-0.408-11.849-0.955-23.52-1.17-35.196c-0.199-10.828-0.042-21.663-0.042-32.496
			c0-1.297,0-2.595,0-4.065c-2.934-0.226-5.618,0.072-8.309-0.919c-1.905-0.702-4.292-0.006-6.444-0.173
			c-2.043-0.159-4.049-0.759-6.091-0.935c-3.532-0.304-7.053,0.206-10.626-0.886c-2.438-0.745-5.304,0.028-7.951-0.19
			c-2.7-0.223-5.286-1.247-8.093-0.982c-5.017,0.473-10.11-0.737-15.104,0.969c-2.227,0.761-4.646-0.243-7.146,0.874
			c-2.158,0.966-4.968,0.521-7.531,1.027c-4.911,0.972-10.008,1.003-15.215,1.439c-0.738,0.643-1.713,1.49-2.15,1.869
			c0.271,2.352,0.633,4.051,0.637,5.75c0.039,20.331,0.024,40.663,0.024,60.995c0,0.961,0,1.924,0,2.866c-16.847,0-33.415,0-50,0
			c0-19.567,0-38.897,0-58.226c0-4.666,0.78-9.509-0.226-13.947c-0.959-4.24-3.699-8.101-5.813-12.045
			c-0.893-1.67-2.176-3.131-3.178-4.541c-2.813,0-5.313-0.034-7.813,0.01c-2.584,0.045-5.073-0.508-7.604-0.857
			c-4.088-0.565-8.334-0.426-12.471-0.077c-4.309,0.363-8.361-1.13-12.593-1.086c-4.498,0.047-8.998,0.011-13.498,0.011
			c-1,0-2.255,0.39-2.955-0.068c-2.78-1.817-5.715-0.457-8.715-1.061c-0.438,1.077-0.957,1.905-1.095,2.793
			c-0.174,1.14,0.398,2.604-0.128,3.438c-1.364,2.161-0.661,4.431-0.929,6.638c-0.27,2.203-0.865,4.385-0.936,6.589
			c-0.096,3.056-0.01,6.089-1.396,8.333c-9.349,8.054-18.286,15.756-26.813,23.101c-11.285,0-22.055,0-32.59,0
			c-0.555-2.735-1.055-5.199-1.596-7.871c-7.219,0.657-14.414-0.662-21.609,0.986c-3.168,0.726-6.655,0.335-9.967,0.063
			c-3.471-0.285-6.537,1.633-9.669,1.061c-0.56,2.867-1.04,5.335-1.508,7.734c-2.344,0.443-4.491,0.998-6.675,1.224
			c-2.22,0.229-4.385,0.394-6.613,0.89c-3.908,0.871-8.021,0.824-12.053,1.143c-0.661,0.053-1.559-0.272-1.962,0.054
			c-2.396,1.938-4.984,0.452-7.461,1.076c-1.271-2.952-2.366-5.506-3.491-8.122c-5.37,0-10.716,0.32-16.004-0.09
			c-5.289-0.411-10.248,1.686-15.135,1.078c-2.329,2.329-4.332,4.332-6.798,6.798c-0.315,5.997-0.657,12.476-1.019,19.304
			c-2.834,0-5.752,0-8.813,0c0,15.805,0,31.256,0,47.059c-7.078,0-13.988,0-21.058,0c0,7.139,0,13.926,0,20.752
			c-8.961,0-17.744,0-26.703,0c0-19.885,0-39.666,0-59.533c-4.4-3.461-9.247-5.979-14.169-8.375
			c-1.146-0.559-2.195-1.057-3.591-1.04c-8.651,0.099-17.306,0.05-26.465,0.05c-2.409,5.201-4.875,10.521-7.36,15.889
			c-0.693,0-1.479,0-2.038,0c-3.954-5.125-7.771-10.069-11.396-14.769c-20.941,0-41.394,0-62.192,0c0,15.688,0,31.259,0,47.001
			c-6.139,0-11.925,0-17.88,0c0,17.625,0,35.076,0,52.314c-2.308,2.316-4.422,4.443-6.526,6.561c-0.681,0-1.346,0-1.366,0
			c-2.543-2.543-4.762-4.76-6.727-6.725c0.203-1.779,0.563-3.479,0.564-5.178c0.042-16.666,0.082-33.33-0.003-49.996
			c-0.033-6.662,0.789-13.404-1.407-20.143c-4.424,0.313-9.008-0.656-13.426,1.043c-8.632,0-17.264,0-25.844,0
			c-6.211-9.309-11.07-19.189-17.671-28.271c-3.769,0.34-7.451,0.672-11.384,1.026c-8.14,10.671-16.263,21.319-24.356,31.935
			c0,16.443,0,32.742,0,49.094c-1.692,0-3.262,0-4.995,0c0-28.002,0-55.785,0-83.92c-4.077,0-7.993,0-12.058,0
			c0-2.145,0-3.938,0-5.764c-4.628,0-9.079,0-12.935,0c-3.307,1.371-0.957,4.193-2.242,5.743c-7.572,0-15.024,0-22.518,0
			c-0.115-1.728-0.222-3.3-0.338-5.028c-11.116,0-21.896,0-32.854,0c0-2.306,0-4.424,0-6.597c-6.748,0-13.316,0-20.06,0
			c0,5.335,0,10.454,0,15.536c-6.748,0-13.317,0-19.887,0c0-18.909,0-37.573,0-55.77c-1.146-1.801-2.436-3.149-2.934-4.746
			c-1.249-4.003-3.198-7.681-4.819-11.509c-3.086-7.288-7.451-13.897-10.979-20.95c-0.486-0.976-1.025-1.927-1.541-2.889
			c-3.236,0.492-6.238,0.947-9.428,1.432c-0.212,0.413-0.475,1.169-0.932,1.777c-3.152,4.202-6.5,8.271-9.478,12.593
			c-2.01,2.913-3.788,5.94-5.095,9.381c-1.357,3.579-2.592,7.248-4.104,10.792c-1.54,3.608-2.793,7.249-2.771,11.381
			c0.143,25.497,0.072,50.995,0.063,76.492c0,1.096-0.106,2.188-0.167,3.334c-2.683-0.486-5.025-0.914-7.642-1.391
			c-0.236-0.234-0.709-0.707-1.352-1.35c0-67.943,0-136.057,0-204c-0.521-0.522-0.875-0.876-1.334-1.334
			c-2.547,0-5.205,0.108-7.849-0.045c-1.377-0.08-3.182-0.184-4.006-1.036c-2.614-2.708-6.547-3.124-9.228-5.767
			c-0.844-0.832-2.729-1.269-4.457-1.222c-6.479,0.174-12.979,0.07-18.543,0.07c-10.694,4.607-20.601,8.875-30.532,13.155
			c0,74.081,0,147.86,0,221.845c-0.972,0-1.777,0.023-2.584-0.006c-0.772-0.029-1.544-0.111-2.308-0.168
			c0.523-11.258-1.561-14.822-5.414-20.826c-3.677,0-7.49,0.152-11.288-0.043c-3.678-0.188-7.337-0.73-11.175-1.137
			c0-2.146,0-4.27,0-6.131c-2.575-2.155-5.214-2.174-7.601-0.574c-1.423,0.955-2.495,2.546-3.476,4.015
			c-1.743,2.611-4.002,4.031-7.191,3.879c-1.148-0.057-2.302-0.01-3.472-0.01c-0.924,2.389-1.813,4.686-2.708,7
			c-4.426,0-8.754-0.105-13.072,0.061c-1.424,0.057-2.447-0.529-3.588-1.061c-1.605,0-3.211,0-4.761,0
			c-0.476-1.432-0.956-2.566-1.178-3.75c-0.065-0.346,0.605-0.828,0.938-1.25c0.121-1.447-0.053-2.82-1-4
			c-2.763-0.063-5.661,0.545-8-1.617c0.129-2.159-0.541-4.444,1-6.383c-2.667,0-5.333,0-8,0c-3.533-0.188-7.021,0.09-10.602-0.832
			c-3.115-0.804-6.601-0.168-9.897-0.168c-1.759,1.662-0.707,4.815-3.418,6.101c-1.389-0.402-2.885-0.834-4.354-1.261
			c-0.593,0.56-1.066,1.007-1.43,1.349c-0.509,4.918-1.004,9.709-1.531,14.813c-0.89,0-1.857,0.033-2.821-0.004
			c-8.176-0.324-16.35-0.67-24.525-0.988c-1.444-0.055-2.893-0.008-4.494-0.008c0-2.184,0-3.971,0-5.91
			c-1.947,0-4.127-0.648-5.429,0.145c-2.292,1.396-4.764-0.143-6.628,0.885c-2.253,1.242-4.371,0.598-6.462,0.926
			c-0.798-1.932-1.12-4.004-2.313-5.236c-1.189-1.229-3.25-1.614-5.03-2.415c-0.267-1.978-2.423-3.457-2.199-5.918
			c0.037-0.418-1.442-1.026-2.267-1.463c-2.649-1.4-5.609-0.921-8.205-1.017c-2.026-2.912-3.834-5.511-5.562-7.994
			c-2.619,0-4.944-0.06-7.264,0.019c-2.267,0.074-4.224-1.707-6.569-1.019c-1.601,0-3.2,0-4.911,0
			c-1.278,2.451-2.467,4.729-3.802,7.291c-2.484-2.252-5.48-0.978-8.287-1.291c-0.618,0-1.236,0-2.094,0
			c0.831,6.916-1.319,13.284-0.989,19.874c0.364,7.277,0.083,14.588,0.083,22.004c-1.697,0-3.151,0-4.384,0
			c-1.825-1.313-3.512-2.524-5.022-3.611c-3.952-1.266-7.276,0.837-10.717,1.844c-3.078,0.898-4.646,3.832-6.086,6.592
			c-0.068,0.129-0.244,0.201-0.46,0.373c-4.082-0.91-8.084,2.215-12.469,0.488c0-8.143,0-16.26,0-24.617
			c-1.372-0.521-2.633-1-3.951-1.5c-0.307-3.072-0.666-6.1-0.895-9.135c-0.216-2.879-0.072-5.701-0.846-8.627
			c-0.776-2.934-0.171-6.232-0.171-9.183c-0.541-0.542-0.895-0.896-1.374-1.374c-11.987,0-24.101,0-36.244,0
			c-0.44,0.438-0.913,0.905-1.382,1.37c0,6.337,0,12.667,0,19.076c-1.45,0.998-2.287,3.428-5,2.014c0-2.213-0.207-4.547,0.055-6.823
			c0.293-2.539-1.259-4.48-1.359-6.978c-8.422,0-16.527,0-24.79,0c0-25.325,0-50.434,0-75.626c-3.079-0.881-6.025-1.723-8.979-2.568
			c0.658-5.624-1.248-10.839-1.027-16.289c0.371-9.147,0.105-18.32,0.081-27.482c0-0.268-0.3-0.534-0.5-0.865
			c-0.43,0.078-0.884,0.161-1.274,0.232c-0.707,2.61,0.085,5.141-1.028,7.739c-0.938,2.191-0.155,4.981-1.073,7.543
			c-1.018,2.839,0.413,5.943-0.893,9.13c-1.08,2.636-0.231,5.962-1.088,9.029c-0.929,3.325-0.898,6.919-1.304,10.556
			c-3.822-0.854-7.317-1.636-10.515-2.351c-0.446-7.476-0.876-14.653-1.305-21.832c-1,0-2,0-3,0
			c-0.284,0.117-0.775,0.188-0.815,0.361c-0.144,0.623-0.229,1.29-0.17,1.926c0.665,7.216-1.229,14.279-1.073,21.632
			c-2.949,0.489-5.751,0.954-9.023,1.496c-1.243,0.614-0.916,2.196-0.917,3.659c-0.002,11.981-0.001,23.962-0.001,35.942
			c0,1.623,0,3.246,0,4.787c-6.825,0.502-13.288,0.977-19.843,1.454c-0.764,8.786,0.229,17.607-0.95,26.462
			c-1.002,7.521-0.236,15.28-0.198,22.937c0.037,7.535-1.564,14.979-1.044,22.553c0.678,9.848-0.713,19.644-1.147,29.543
			c-2.899,0.537-5.831,1.078-8.548,1.582"/>
	</g>
	<g id="Layer_1_1_" display="inline">
		<path fill="#8A8A8A" d="M0,364.406c11.479,0-4.035-0.094,7.27-0.103c0.145,0,0.305-0.075,0.429-0.161
			c0.133-0.091,0.229-0.23,0.526-0.547c0-5.923,0-12.041,0-18.327c1.965,0,3.753,0,5.708,0c0-22.621,0-45.069,0-67.354
			c3.507-2.144,6.815-4.162,9.683-5.913c0.678-1.842,1.211-3.289,1.666-4.523c7.364,0,14.482,0,21.428,0
			c0.521,0.521,0.875,0.875,1.404,1.403c0,1.275,0,2.729,0,4.556c4.633,2.108,9.265,4.22,14.063,6.403c0,23.048,0,46.162,0,69.394
			c3.729,0.255,7.334-0.146,11.044,0.238c0,19.138,0,37.916,0,56.735c12.294,0,24.411,0,36.696,0c0-32.549,0-64.995,0-97.272
			c0.641-0.641,1.112-1.11,1.759-1.76c3.277,0,6.732,0,10.366,0c0-28.144,0-56.111,0.006-84.08c0-0.146,0.072-0.306,0.151-0.433
			c0.086-0.139,0.221-0.246,0.49-0.531c2.315,0,4.771,0,7.382,0c0-19.96,0-39.742,0-59.876c4.071,0,7.985,0,12.05,0
			c0-22.468,0-44.583,0-66.717c2.749,0,5.317,0,8.05,0c0,19.345,0,38.46,0,57.516c2.085,0,3.985,0,5.87,0
			c0-20.419,0-40.582,0-60.744c2.333,0,4.667,0,7,0c0,23.274,0,46.549,0,69.997c2.438,0,4.557,0,6.317,0
			c2.244,1.226,1.668,3.037,1.67,4.622c0.021,15.99,0.013,31.979,0.013,47.97c0,1.109,0,2.22,0,2.956
			c5.352,3.798,10.254,7.277,15.166,10.763c0,25.315,0,50.42,0,75.695c4.613,0,9.065,0,13.339,0c0.527,0.527,0.88,0.881,1.563,1.563
			c0,35.557,0,71.443,0,107.314c11.775,0,23.222,0,35.017,0c0-4.685,0-9.264,0-13.982c19.126,0,37.903,0,56.836,0
			c0-27.269,0-54.374,0-81.433c3.86-3.608,7.607-7.111,10.468-9.785c1.093-5.374,1.938-9.525,2.777-13.653c0.932,0,1.59,0,2.271,0
			c2.036,3.593,4.089,7.214,6.218,10.972c1.28,0,2.79-0.146,4.257,0.041c1.539,0.196,3.037,0.719,4.752,1.146
			c0.473-0.909,1.159-1.697,1.295-2.571c0.939-6.024,3.17-11.71,4.561-17.612c0.009-0.037,0.313-0.004,0.48-0.004
			c1,0.332,2,0.666,3,1c1.544,3.436,1.901,7.197,2.96,10.771c1.188,4.011,2.072,8.112,3.044,12.001
			c3.164,0.56,5.963,1.055,8.657,1.531c0.449,1.833,1.151,3.632,1.282,5.472c0.241,3.376,0.111,6.72,0.931,10.11
			c0.742,3.069,0.359,6.345,0.948,9.587c0.98,5.41,0.852,11.021,1.169,16.553c0.055,0.946,0.008,1.897,0.008,3.021
			c8.488,0,16.607,0,24.56,0c0.599,2.138,1.142,4.073,1.669,5.952c2.427,0,4.603,0.137,6.753-0.041
			c1.875-0.151,3.682,0.344,5.69-0.774c1.617-0.9,4.136-0.185,5.925-0.185c1.243,4.027,1.686,7.712,1.383,11.445
			c-0.209,2.595,0.566,4.733,2.525,6.555c3.756,0,7.59-0.171,11.402,0.051c3.662,0.211,7.3,0.825,11.247,1.301
			c1.275,2.843,2.604,5.799,4.02,8.948c2.463-0.555,4.591-1.029,6.614-1.483c0.408-11.85,0.956-23.521,1.17-35.198
			c0.199-10.828,0.042-21.663,0.042-32.496c0-1.297,0-2.595,0-4.063c2.932-0.228,5.618,0.071,8.307-0.919
			c1.907-0.702,4.292-0.007,6.446-0.173c2.042-0.159,4.048-0.761,6.09-0.937c3.532-0.304,7.053,0.206,10.626-0.886
			c2.438-0.745,5.304,0.028,7.952-0.19c2.7-0.223,5.286-1.247,8.092-0.98c5.018,0.473,10.111-0.737,15.104,0.969
			c2.228,0.761,4.647-0.243,7.146,0.874c2.16,0.966,4.969,0.521,7.532,1.027c4.911,0.972,10.008,1.003,15.214,1.438
			c0.739,0.645,1.714,1.49,2.151,1.869c-0.271,2.352-0.632,4.051-0.636,5.75c-0.04,20.331-0.025,40.662-0.025,60.993
			c0,0.962,0,1.924,0,2.868c16.846,0,33.415,0,50,0c0-19.569,0-38.897,0-58.229c0-4.666-0.78-9.509,0.225-13.947
			c0.959-4.238,3.7-8.101,5.813-12.044c0.893-1.67,2.176-3.132,3.179-4.541c2.813,0,5.314-0.033,7.813,0.01
			c2.584,0.046,5.073-0.508,7.604-0.856c4.088-0.565,8.334-0.426,12.473-0.077c4.307,0.363,8.36-1.13,12.592-1.086
			c4.499,0.047,8.999,0.012,13.499,0.012c1,0,2.254,0.391,2.955-0.067c2.78-1.817,5.714-0.457,8.714-1.062
			c0.438,1.076,0.958,1.904,1.094,2.793c0.175,1.141-0.396,2.604,0.128,3.438c1.364,2.161,0.661,4.431,0.929,6.638
			c0.269,2.203,0.865,4.385,0.936,6.589c0.095,3.058,0.01,6.089,1.396,8.333c9.35,8.056,18.287,15.757,26.813,23.103
			c11.286,0,22.055,0,32.59,0c0.554-2.735,1.054-5.199,1.595-7.871c7.22,0.657,14.415-0.662,21.611,0.985
			c3.167,0.727,6.656,0.336,9.966,0.063c3.471-0.285,6.538,1.633,9.668,1.061c0.561,2.867,1.04,5.336,1.508,7.734
			c2.345,0.443,4.491,0.998,6.675,1.225c2.221,0.229,4.386,0.395,6.613,0.891c3.908,0.871,8.022,0.824,12.053,1.143
			c0.661,0.055,1.56-0.271,1.963,0.056c2.396,1.938,4.983,0.45,7.461,1.074c1.27-2.95,2.364-5.506,3.489-8.122
			c5.371,0,10.718,0.32,16.006-0.09c5.29-0.411,10.247,1.688,15.135,1.078c2.329,2.329,4.332,4.332,6.798,6.798
			c0.316,5.997,0.657,12.477,1.019,19.306c2.834,0,5.752,0,8.813,0c0,15.804,0,31.255,0,47.057c7.078,0,13.988,0,21.058,0
			c0,7.139,0,13.925,0,20.752c8.961,0,17.743,0,26.702,0c0-19.884,0-39.667,0-59.533c4.401-3.461,9.247-5.979,14.169-8.375
			c1.146-0.559,2.195-1.056,3.592-1.04c8.65,0.101,17.306,0.052,26.465,0.052c2.41,5.199,4.875,10.521,7.359,15.888
			c0.694,0,1.479,0,2.038,0c3.954-5.124,7.771-10.068,11.397-14.77c20.94,0,41.393,0,62.191,0c0,15.688,0,31.261,0,47
			c6.14,0,11.925,0,17.879,0c0,17.626,0,35.076,0,52.314c2.31,2.319,4.425,4.445,6.527,6.561c0.682,0,1.346,0,1.367,0
			c2.543-2.542,4.761-4.76,6.726-6.724c-0.203-1.779-0.562-3.478-0.563-5.177c-0.042-16.665-0.082-33.33,0.003-49.995
			c0.033-6.664-0.79-13.406,1.407-20.146c4.424,0.314,9.008-0.654,13.426,1.045c8.631,0,17.263,0,25.843,0
			c6.211-9.308,11.071-19.189,17.671-28.271c3.77,0.34,7.451,0.672,11.385,1.027c8.14,10.67,16.263,21.316,24.355,31.932
			c0,16.445,0,32.745,0,49.095c1.694,0,3.262,0,4.996,0c0-28.002,0-55.785,0-83.92c4.077,0,7.993,0,12.057,0
			c0-2.145,0-3.937,0-5.763c4.628,0,9.079,0,12.936,0c3.306,1.371,0.957,4.194,2.242,5.743c7.571,0,15.023,0,22.518,0
			c0.115-1.729,0.221-3.299,0.338-5.029c11.116,0,21.896,0,32.852,0c0-2.305,0-4.424,0-6.596c6.748,0,13.317,0,20.061,0
			c0,5.335,0,10.455,0,15.537c6.749,0,13.319,0,19.887,0c0-18.909,0-37.573,0-55.771c1.146-1.801,2.437-3.147,2.934-4.746
			c1.25-4.003,3.198-7.681,4.819-11.509c3.086-7.288,7.451-13.897,10.979-20.95c0.485-0.976,1.023-1.927,1.541-2.889
			c3.235,0.492,6.236,0.947,9.428,1.432c0.211,0.413,0.473,1.17,0.93,1.777c3.154,4.201,6.5,8.271,9.479,12.593
			c2.009,2.913,3.788,5.94,5.094,9.382c1.358,3.578,2.592,7.247,4.104,10.791c1.541,3.608,2.793,7.249,2.771,11.381
			c-0.142,25.497-0.073,50.995-0.063,76.492c0,1.097,0.105,2.189,0.166,3.334c2.684-0.485,5.025-0.914,7.643-1.39
			c0.236-0.236,0.708-0.707,1.35-1.349c0-67.943,0-136.059,0-204c0.522-0.522,0.876-0.876,1.334-1.334
			c2.548,0,5.206,0.108,7.851-0.045c1.377-0.08,3.181-0.184,4.005-1.036c2.614-2.708,6.547-3.124,9.227-5.767
			c0.846-0.832,2.729-1.269,4.457-1.222c6.492,0.173,12.99,0.069,18.558,0.069c10.692,4.607,20.6,8.875,30.531,13.155
			c0,74.081,0,147.86,0,221.845c0.972,0,1.777,0.022,2.584-0.007c0.772-0.026,1.543-0.108,2.308-0.168
			c-0.524-11.257,1.56-14.82,5.414-20.825c3.677,0,7.489,0.151,11.286-0.043c3.68-0.188,7.339-0.729,11.177-1.137
			c0-2.146,0-4.269,0-6.132c2.573-2.154,5.214-2.173,7.601-0.572c1.424,0.954,2.495,2.545,3.477,4.017
			c1.744,2.609,4.002,4.029,7.19,3.878c1.148-0.058,2.304-0.011,3.474-0.011c0.924,2.391,1.813,4.688,2.707,7
			c4.427,0,8.754-0.104,13.072,0.062c1.424,0.055,2.446-0.531,3.588-1.062c1.604,0,3.211,0,4.762,0
			c0.476-1.433,0.955-2.565,1.178-3.75c0.064-0.346-0.605-0.827-0.938-1.25c-0.121-1.445,0.053-2.818,1-4
			c2.762-0.063,5.66,0.546,8-1.615c-0.131-2.16,0.541-4.444-1-6.385c2.666,0,5.332,0,8,0c3.531-0.188,7.021,0.091,10.602-0.831
			c3.115-0.804,6.602-0.169,9.896-0.169c1.76,1.662,0.707,4.814,3.418,6.101c1.39-0.401,2.885-0.834,4.354-1.259
			c0.593,0.559,1.064,1.005,1.43,1.347c0.51,4.918,1.006,9.709,1.531,14.813c0.891,0,1.855,0.032,2.821-0.006
			c8.176-0.322,16.35-0.67,24.524-0.985c1.443-0.058,2.894-0.009,4.494-0.009c0-2.185,0-3.972,0-5.91
			c1.946,0,4.127-0.649,5.428,0.144c2.293,1.396,4.766-0.142,6.63,0.885c2.253,1.242,4.37,0.599,6.462,0.926
			c0.798-1.933,1.12-4.005,2.313-5.234c1.189-1.229,3.25-1.615,5.03-2.416c0.269-1.978,2.423-3.458,2.199-5.918
			c-0.037-0.419,1.44-1.028,2.267-1.464c2.649-1.399,5.609-0.919,8.205-1.018c2.026-2.911,3.834-5.51,5.563-7.991
			c2.619,0,4.943-0.062,7.265,0.018c2.267,0.075,4.224-1.707,6.569-1.018c1.601,0,3.199,0,4.91,0
			c1.277,2.449,2.467,4.729,3.803,7.291c2.482-2.255,5.479-0.979,8.287-1.291c0.617,0,1.234,0,2.094,0
			c-0.831,6.916,1.318,13.281,0.988,19.872c-0.363,7.276-0.082,14.588-0.082,22.005c1.695,0,3.149,0,4.384,0
			c1.825-1.313,3.512-2.525,5.021-3.611c3.952-1.266,7.276,0.836,10.719,1.842c3.078,0.9,4.646,3.832,6.086,6.591
			c0.066,0.131,0.244,0.202,0.459,0.374c4.082-0.911,8.084,2.214,12.47,0.487c0-8.141,0-16.258,0-24.617
			c1.372-0.521,2.633-0.999,3.951-1.499c0.307-3.072,0.666-6.099,0.896-9.134c0.215-2.878,0.071-5.701,0.847-8.626
			c0.774-2.936,0.17-6.235,0.17-9.184c0.541-0.542,0.896-0.896,1.375-1.374c11.985,0,24.101,0,36.244,0
			c0.438,0.437,0.911,0.903,1.381,1.369c0,6.339,0,12.668,0,19.074c1.451,0.998,2.287,3.431,5,2.016
			c0-2.212,0.207-4.546-0.056-6.824c-0.293-2.537,1.261-4.479,1.359-6.978c8.422,0,16.527,0,24.79,0c0-25.323,0-50.435,0-75.627
			c3.079-0.881,6.024-1.723,8.979-2.566c-0.658-5.625,1.248-10.841,1.025-16.289c-0.371-9.147-0.104-18.32-0.081-27.481
			c0-0.269,0.3-0.533,0.5-0.865c0.431,0.078,0.884,0.162,1.273,0.231c0.707,2.609-0.084,5.142,1.028,7.739
			c0.938,2.189,0.154,4.98,1.072,7.543c1.018,2.839-0.413,5.941,0.893,9.13c1.08,2.636,0.231,5.962,1.088,9.029
			c0.931,3.323,0.898,6.918,1.306,10.556c3.822-0.854,7.315-1.636,10.515-2.351c0.446-7.478,0.877-14.653,1.307-21.833c1,0,2,0,3,0
			c0.283,0.117,0.773,0.188,0.813,0.361c0.146,0.622,0.229,1.289,0.171,1.926c-0.666,7.215,1.229,14.278,1.072,21.633
			c2.948,0.487,5.751,0.953,9.021,1.495c1.244,0.613,0.916,2.195,0.918,3.658c0.002,11.981,0,23.962,0,35.942
			c0,1.623,0,3.246,0,4.787c6.826,0.501,13.289,0.975,19.845,1.454c0.764,8.786-0.229,17.605,0.948,26.461
			c1.002,7.521,0.236,15.28,0.199,22.936c-0.037,7.535,1.563,14.979,1.043,22.553c-0.678,9.85,0.713,19.645,1.146,29.545
			c2.898,0.534,5.832,1.077,8.549,1.58c0.938,1.956,1.801,3.76,2.656,5.547c0.793,0,1.576,0,2.139,0
			c2.605-3.052,0.773-6.736,1.781-9.878c0.693,0,1.193,0,1.691,0c0.479,0.381,0.957,0.761,2,1.589c0-1.707,0-2.647,0-3.589
			c0-36,0-72,0-108c0-0.613,0-1.229,0-1.878c2.235-0.108,4.135-0.202,6-0.296c0-0.836,0-1.332,0-1.826
			c2.105-0.171,0.116-2.488,1.651-3.026c3.267,0.276,6.718-0.657,9.941,1.121c0.97-1.441,1.849-2.749,2.672-3.977
			c3.589,0,7.032,0,10.405,0c1.925,2.381,4.427,3.178,7.029,2.909c1.334,2.479,1.334,2.479,3.739,3.021
			c1.806-3.219,6.458-1.186,8.53-4.774c-0.256-2.182,0.475-4.368,2.293-6.039c11.621,0,4.979-0.017,16.689-0.017
			c0,2.354,0,60.781,0,192.781c-684.668,0-1235.334,0-1920,0"/>
	</g>
</g>
<g id="Layer_4">
	<g id="Layer_2_4_">
		<path fill="#545555" d="M0,522.313c684.667,0,1235.333,0,1920,0c0-109,0.063-212.655,0-211.546c-22.063,0-30.223,0-52.293,0
			c0-13.016,0-25.8,0-38.768c-11.479,0-22.784,0.001-34.089-0.007c-0.146,0-0.306-0.076-0.431-0.161
			c-0.134-0.091-0.229-0.231-0.524-0.547c0-5.923,0-12.041,0-18.327c-1.965,0-3.754,0-5.707,0c0-22.623,0-45.071,0-67.354
			c-3.509-2.143-6.815-4.162-9.685-5.914c-0.679-1.842-1.212-3.289-1.666-4.523c-7.363,0-14.48,0-21.429,0
			c-0.521,0.521-0.875,0.874-1.403,1.404c0,1.274,0,2.728,0,4.555c-4.634,2.109-9.266,4.219-14.063,6.404
			c0,23.047,0,46.162,0,69.392c-3.729,0.255-7.335-0.146-11.045,0.24c0,19.136,0,37.916,0,56.735c-12.296,0-24.41,0-36.696,0
			c0-32.549,0-64.996,0-97.272c-0.641-0.642-1.112-1.112-1.759-1.761c-3.277,0-6.732,0-10.366,0c0-28.145,0-56.11-0.007-84.079
			c0-0.146-0.071-0.306-0.15-0.433c-0.087-0.14-0.222-0.246-0.489-0.531c-2.314,0-4.771,0-7.384,0c0-19.961,0-39.742,0-59.877
			c-4.069,0-7.983,0-12.049,0c0-22.467,0-44.583,0-66.716c-2.749,0-5.317,0-8.051,0c0,19.345,0,38.46,0,57.516
			c-2.085,0-3.984,0-5.87,0c0-20.419,0-40.582,0-60.744c-2.333,0-4.667,0-7,0c0,23.274,0,46.549,0,69.997c-2.438,0-4.557,0-6.316,0
			c-2.244,1.226-1.668,3.037-1.671,4.622c-0.021,15.989-0.013,31.979-0.013,47.97c0,1.109,0,2.221,0,2.956
			c-5.354,3.798-10.255,7.276-15.166,10.763c0,25.315,0,50.42,0,75.697c-4.612,0-9.064,0-13.339,0
			c-0.527,0.527-0.881,0.881-1.563,1.563c0,35.558,0,71.443,0,107.314c-11.774,0-23.224,0-35.019,0c0-4.682,0-9.262,0-13.98
			c-19.127,0-37.903,0-56.836,0c0-27.271,0-54.375,0-81.435c-3.86-3.608-7.606-7.11-10.47-9.784
			c-1.093-5.375-1.938-9.525-2.776-13.654c-0.933,0-1.59,0-2.271,0c-2.035,3.593-4.091,7.215-6.22,10.972
			c-1.278,0-2.789-0.147-4.257,0.041c-1.538,0.196-3.036,0.718-4.752,1.147c-0.475-0.91-1.159-1.697-1.295-2.571
			c-0.938-6.025-3.17-11.71-4.563-17.612c-0.008-0.037-0.313-0.005-0.479-0.005c-1,0.333-2,0.667-3,1
			c-1.544,3.435-1.901,7.198-2.96,10.771c-1.188,4.012-2.072,8.112-3.045,12.002c-3.164,0.56-5.964,1.055-8.656,1.53
			c-0.449,1.833-1.149,3.632-1.283,5.472c-0.239,3.377-0.11,6.721-0.931,10.11c-0.741,3.071-0.358,6.345-0.948,9.587
			c-0.979,5.41-0.853,11.023-1.168,16.553c-0.056,0.947-0.009,1.897-0.009,3.021c-8.487,0-16.605,0-24.561,0
			c-0.601,2.137-1.144,4.074-1.67,5.953c-2.426,0-4.603,0.135-6.752-0.041c-1.875-0.152-3.683,0.342-5.689-0.775
			c-1.617-0.899-4.137-0.184-5.926-0.184c-1.241,4.027-1.684,7.712-1.383,11.445c0.209,2.595-0.566,4.731-2.525,6.555
			c-3.756,0-7.59-0.171-11.401,0.049c-3.662,0.211-7.3,0.827-11.246,1.301c-1.276,2.844-2.604,5.799-4.021,8.949
			c-2.463-0.553-4.592-1.029-6.614-1.484c-0.408-11.849-0.955-23.52-1.17-35.196c-0.199-10.828-0.042-21.663-0.042-32.496
			c0-1.297,0-2.595,0-4.065c-2.934-0.226-5.618,0.072-8.309-0.918c-1.905-0.703-4.292-0.007-6.444-0.174
			c-2.043-0.158-4.049-0.759-6.091-0.936c-3.532-0.303-7.053,0.207-10.626-0.885c-2.438-0.746-5.304,0.027-7.951-0.19
			c-2.7-0.224-5.286-1.247-8.093-0.981c-5.017,0.473-10.11-0.738-15.104,0.969c-2.227,0.761-4.646-0.244-7.146,0.873
			c-2.158,0.967-4.968,0.521-7.531,1.027c-4.911,0.973-10.008,1.003-15.215,1.439c-0.738,0.643-1.713,1.49-2.15,1.869
			c0.271,2.352,0.633,4.051,0.637,5.75c0.039,20.33,0.024,40.662,0.024,60.994c0,0.961,0,1.924,0,2.866c-16.847,0-33.415,0-50,0
			c0-19.567,0-38.897,0-58.226c0-4.666,0.78-9.51-0.226-13.947c-0.959-4.24-3.699-8.102-5.813-12.045
			c-0.893-1.67-2.176-3.131-3.178-4.541c-2.813,0-5.313-0.034-7.813,0.01c-2.584,0.045-5.073-0.508-7.604-0.857
			c-4.088-0.564-8.334-0.426-12.471-0.076c-4.309,0.363-8.361-1.131-12.593-1.086c-4.498,0.047-8.998,0.011-13.498,0.011
			c-1,0-2.255,0.39-2.955-0.067c-2.78-1.817-5.715-0.457-8.715-1.062c-0.438,1.077-0.957,1.905-1.095,2.793
			c-0.174,1.14,0.398,2.604-0.128,3.438c-1.364,2.16-0.661,4.431-0.929,6.638c-0.27,2.202-0.865,4.385-0.936,6.589
			c-0.096,3.057-0.01,6.089-1.396,8.333c-9.349,8.054-18.286,15.756-26.813,23.101c-11.285,0-22.055,0-32.59,0
			c-0.555-2.734-1.055-5.199-1.596-7.871c-7.219,0.657-14.414-0.662-21.609,0.986c-3.168,0.727-6.655,0.335-9.967,0.063
			c-3.471-0.284-6.537,1.634-9.669,1.062c-0.56,2.867-1.04,5.335-1.508,7.733c-2.344,0.443-4.491,0.998-6.675,1.225
			c-2.22,0.229-4.385,0.395-6.613,0.891c-3.908,0.871-8.021,0.823-12.053,1.143c-0.661,0.053-1.559-0.271-1.962,0.054
			c-2.396,1.938-4.984,0.452-7.461,1.076c-1.271-2.952-2.366-5.506-3.491-8.122c-5.37,0-10.716,0.32-16.004-0.09
			c-5.289-0.411-10.248,1.686-15.135,1.078c-2.329,2.328-4.332,4.332-6.798,6.798c-0.315,5.997-0.657,12.476-1.019,19.304
			c-2.834,0-5.752,0-8.813,0c0,15.805,0,31.256,0,47.059c-7.078,0-13.988,0-21.058,0c0,7.139,0,13.926,0,20.752
			c-8.961,0-17.744,0-26.703,0c0-19.885,0-39.666,0-59.533c-4.4-3.461-9.247-5.979-14.169-8.375
			c-1.146-0.559-2.195-1.057-3.591-1.04c-8.651,0.099-17.306,0.05-26.465,0.05c-2.409,5.201-4.875,10.521-7.36,15.889
			c-0.693,0-1.479,0-2.038,0c-3.954-5.125-7.771-10.069-11.396-14.769c-20.941,0-41.394,0-62.192,0c0,15.688,0,31.259,0,47.001
			c-6.139,0-11.925,0-17.88,0c0,17.625,0,35.076,0,52.314c-2.308,2.316-4.422,4.443-6.526,6.561c-0.681,0-1.346,0-1.366,0
			c-2.543-2.543-4.762-4.76-6.727-6.725c0.203-1.779,0.563-3.479,0.564-5.178c0.042-16.666,0.082-33.33-0.003-49.996
			c-0.033-6.662,0.789-13.404-1.407-20.143c-4.424,0.313-9.008-0.656-13.426,1.043c-8.632,0-17.264,0-25.844,0
			c-6.211-9.309-11.07-19.189-17.671-28.271c-3.769,0.34-7.451,0.672-11.384,1.026c-8.14,10.671-16.263,21.319-24.356,31.935
			c0,16.443,0,32.742,0,49.094c-1.692,0-3.262,0-4.995,0c0-28.002,0-55.785,0-83.92c-4.077,0-7.993,0-12.058,0
			c0-2.145,0-3.938,0-5.764c-4.628,0-9.079,0-12.935,0c-3.307,1.371-0.957,4.193-2.242,5.743c-7.572,0-15.024,0-22.518,0
			c-0.115-1.728-0.222-3.3-0.338-5.028c-11.116,0-21.896,0-32.854,0c0-2.306,0-4.424,0-6.597c-6.748,0-13.316,0-20.06,0
			c0,5.335,0,10.454,0,15.536c-6.748,0-13.317,0-19.887,0c0-18.908,0-37.572,0-55.77c-1.146-1.801-2.436-3.149-2.934-4.746
			c-1.249-4.004-3.198-7.682-4.819-11.51c-3.086-7.287-7.451-13.896-10.979-20.949c-0.486-0.977-1.025-1.928-1.541-2.889
			c-3.236,0.491-6.238,0.946-9.428,1.432c-0.212,0.412-0.475,1.169-0.932,1.777c-3.152,4.201-6.5,8.271-9.478,12.592
			c-2.01,2.914-3.788,5.94-5.095,9.382c-1.357,3.579-2.592,7.248-4.104,10.792c-1.54,3.607-2.793,7.249-2.771,11.381
			c0.143,25.497,0.072,50.995,0.063,76.492c0,1.096-0.106,2.188-0.167,3.334c-2.683-0.486-5.025-0.914-7.642-1.391
			c-0.236-0.234-0.709-0.707-1.352-1.35c0-67.943,0-136.057,0-204c-0.521-0.521-0.875-0.876-1.334-1.334
			c-2.547,0-5.205,0.107-7.849-0.045c-1.377-0.08-3.182-0.184-4.006-1.036c-2.614-2.708-6.547-3.124-9.228-5.767
			c-0.844-0.832-2.729-1.27-4.457-1.223c-6.479,0.174-12.979,0.07-18.543,0.07c-10.694,4.607-20.601,8.875-30.532,13.154
			c0,74.082,0,147.861,0,221.846c-0.972,0-1.777,0.023-2.584-0.006c-0.772-0.029-1.544-0.111-2.308-0.168
			c0.523-11.258-1.561-14.822-5.414-20.826c-3.677,0-7.49,0.152-11.288-0.043c-3.678-0.188-7.337-0.73-11.175-1.137
			c0-2.146,0-4.27,0-6.131c-2.575-2.155-5.214-2.174-7.601-0.574c-1.423,0.955-2.495,2.546-3.476,4.015
			c-1.743,2.611-4.002,4.031-7.191,3.879c-1.148-0.057-2.302-0.01-3.472-0.01c-0.924,2.389-1.813,4.686-2.708,7
			c-4.426,0-8.754-0.105-13.072,0.061c-1.424,0.057-2.447-0.529-3.588-1.061c-1.605,0-3.211,0-4.761,0
			c-0.476-1.432-0.956-2.566-1.178-3.75c-0.065-0.346,0.605-0.828,0.938-1.25c0.121-1.447-0.053-2.82-1-4
			c-2.763-0.063-5.661,0.545-8-1.617c0.129-2.159-0.541-4.444,1-6.383c-2.667,0-5.333,0-8,0c-3.533-0.188-7.021,0.09-10.602-0.832
			c-3.115-0.804-6.601-0.168-9.897-0.168c-1.759,1.662-0.707,4.815-3.418,6.101c-1.389-0.402-2.885-0.834-4.354-1.261
			c-0.593,0.56-1.066,1.007-1.43,1.349c-0.509,4.918-1.004,9.709-1.531,14.813c-0.89,0-1.857,0.033-2.821-0.004
			c-8.176-0.324-16.35-0.67-24.525-0.988c-1.444-0.055-2.893-0.008-4.494-0.008c0-2.184,0-3.971,0-5.91
			c-1.947,0-4.127-0.648-5.429,0.145c-2.292,1.396-4.764-0.143-6.628,0.885c-2.253,1.242-4.371,0.598-6.462,0.926
			c-0.798-1.932-1.12-4.004-2.313-5.236c-1.189-1.229-3.25-1.614-5.03-2.415c-0.267-1.978-2.423-3.457-2.199-5.918
			c0.037-0.418-1.442-1.026-2.267-1.463c-2.649-1.4-5.609-0.921-8.205-1.017c-2.026-2.912-3.834-5.511-5.562-7.994
			c-2.619,0-4.944-0.06-7.264,0.019c-2.267,0.074-4.224-1.707-6.569-1.019c-1.601,0-3.2,0-4.911,0
			c-1.278,2.451-2.467,4.729-3.802,7.291c-2.484-2.252-5.48-0.978-8.287-1.291c-0.618,0-1.236,0-2.094,0
			c0.831,6.916-1.319,13.284-0.989,19.874c0.364,7.277,0.083,14.588,0.083,22.004c-1.697,0-3.151,0-4.384,0
			c-1.825-1.313-3.512-2.524-5.022-3.611c-3.952-1.266-7.276,0.837-10.717,1.844c-3.078,0.898-4.646,3.832-6.086,6.592
			c-0.068,0.129-0.244,0.201-0.46,0.373c-4.082-0.91-8.084,2.215-12.469,0.488c0-8.143,0-16.26,0-24.617
			c-1.372-0.521-2.633-1-3.951-1.5c-0.307-3.072-0.666-6.1-0.895-9.135c-0.216-2.879-0.072-5.701-0.846-8.627
			c-0.776-2.934-0.171-6.232-0.171-9.183c-0.541-0.542-0.895-0.896-1.374-1.374c-11.987,0-24.101,0-36.244,0
			c-0.44,0.438-0.913,0.905-1.382,1.37c0,6.337,0,12.667,0,19.076c-1.45,0.998-2.287,3.428-5,2.014c0-2.213-0.207-4.547,0.055-6.823
			c0.293-2.539-1.259-4.48-1.359-6.978c-8.422,0-16.527,0-24.79,0c0-25.325,0-50.435,0-75.626c-3.079-0.881-6.025-1.723-8.979-2.568
			c0.658-5.624-1.248-10.839-1.027-16.289c0.371-9.146,0.105-18.32,0.081-27.481c0-0.269-0.3-0.534-0.5-0.865
			c-0.43,0.078-0.884,0.161-1.274,0.231c-0.707,2.61,0.085,5.142-1.028,7.739c-0.938,2.191-0.155,4.981-1.073,7.544
			c-1.018,2.838,0.413,5.942-0.893,9.129c-1.08,2.637-0.231,5.963-1.088,9.029c-0.929,3.325-0.898,6.919-1.304,10.557
			c-3.822-0.854-7.317-1.637-10.515-2.352c-0.446-7.477-0.876-14.652-1.305-21.832c-1,0-2,0-3,0
			c-0.284,0.117-0.775,0.188-0.815,0.361c-0.144,0.623-0.229,1.289-0.17,1.926c0.665,7.216-1.229,14.279-1.073,21.632
			c-2.949,0.489-5.751,0.954-9.023,1.496c-1.243,0.614-0.916,2.196-0.917,3.659c-0.002,11.98-0.001,23.962-0.001,35.941
			c0,1.623,0,3.246,0,4.787c-6.825,0.502-13.288,0.977-19.843,1.454c-0.764,8.786,0.229,17.607-0.95,26.462
			c-1.002,7.521-0.236,15.28-0.198,22.937c0.037,7.535-1.564,14.979-1.044,22.553c0.678,9.848-0.713,19.644-1.147,29.543
			c-2.899,0.537-5.831,1.078-8.548,1.582"/>
	</g>
	<g id="Layer_1_4_">
		<path fill="#8A8A8A" d="M0,364.407c11.479,0-4.035-0.094,7.27-0.103c0.145,0,0.305-0.075,0.429-0.161
			c0.133-0.091,0.229-0.23,0.526-0.547c0-5.923,0-12.041,0-18.327c1.965,0,3.753,0,5.708,0c0-22.621,0-45.069,0-67.354
			c3.507-2.144,6.815-4.162,9.683-5.913c0.678-1.842,1.211-3.289,1.666-4.523c7.364,0,14.482,0,21.428,0
			c0.521,0.521,0.875,0.875,1.404,1.403c0,1.275,0,2.729,0,4.556c4.633,2.108,9.265,4.22,14.063,6.403c0,23.048,0,46.162,0,69.394
			c3.729,0.255,7.334-0.146,11.044,0.238c0,19.138,0,37.916,0,56.735c12.294,0,24.411,0,36.696,0c0-32.549,0-64.995,0-97.272
			c0.641-0.641,1.112-1.11,1.759-1.76c3.277,0,6.732,0,10.366,0c0-28.144,0-56.111,0.006-84.08c0-0.146,0.072-0.306,0.151-0.433
			c0.086-0.14,0.221-0.246,0.49-0.531c2.315,0,4.771,0,7.382,0c0-19.96,0-39.741,0-59.876c4.071,0,7.985,0,12.05,0
			c0-22.468,0-44.583,0-66.717c2.749,0,5.317,0,8.05,0c0,19.345,0,38.46,0,57.516c2.085,0,3.985,0,5.87,0
			c0-20.419,0-40.582,0-60.744c2.333,0,4.667,0,7,0c0,23.274,0,46.549,0,69.998c2.438,0,4.557,0,6.317,0
			c2.244,1.226,1.668,3.036,1.67,4.621c0.021,15.99,0.013,31.979,0.013,47.971c0,1.108,0,2.22,0,2.955
			c5.352,3.799,10.254,7.277,15.166,10.764c0,25.314,0,50.42,0,75.695c4.613,0,9.065,0,13.339,0c0.527,0.527,0.88,0.881,1.563,1.563
			c0,35.557,0,71.443,0,107.314c11.775,0,23.222,0,35.017,0c0-4.685,0-9.264,0-13.982c19.126,0,37.903,0,56.836,0
			c0-27.269,0-54.374,0-81.433c3.86-3.608,7.607-7.111,10.468-9.785c1.093-5.374,1.938-9.525,2.777-13.653c0.932,0,1.59,0,2.271,0
			c2.036,3.593,4.089,7.214,6.218,10.972c1.28,0,2.79-0.146,4.257,0.041c1.539,0.196,3.037,0.719,4.752,1.146
			c0.473-0.909,1.159-1.697,1.295-2.571c0.939-6.024,3.17-11.71,4.561-17.612c0.009-0.037,0.313-0.004,0.48-0.004
			c1,0.332,2,0.666,3,1c1.544,3.436,1.901,7.197,2.96,10.771c1.188,4.011,2.072,8.112,3.044,12.001
			c3.164,0.56,5.963,1.055,8.657,1.531c0.449,1.833,1.151,3.632,1.282,5.472c0.241,3.376,0.111,6.72,0.931,10.11
			c0.742,3.069,0.359,6.345,0.948,9.587c0.98,5.41,0.852,11.021,1.169,16.553c0.055,0.946,0.008,1.897,0.008,3.021
			c8.488,0,16.607,0,24.56,0c0.599,2.138,1.142,4.073,1.669,5.952c2.427,0,4.603,0.137,6.753-0.041
			c1.875-0.151,3.682,0.344,5.69-0.774c1.617-0.9,4.136-0.185,5.925-0.185c1.243,4.027,1.686,7.712,1.383,11.445
			c-0.209,2.595,0.566,4.733,2.525,6.555c3.756,0,7.59-0.171,11.402,0.051c3.662,0.211,7.3,0.825,11.247,1.301
			c1.275,2.843,2.604,5.799,4.02,8.948c2.463-0.555,4.591-1.029,6.614-1.483c0.408-11.85,0.956-23.521,1.17-35.198
			c0.199-10.828,0.042-21.663,0.042-32.496c0-1.297,0-2.595,0-4.063c2.932-0.228,5.618,0.071,8.307-0.919
			c1.907-0.702,4.292-0.007,6.446-0.173c2.042-0.159,4.048-0.761,6.09-0.937c3.532-0.304,7.053,0.206,10.626-0.886
			c2.438-0.745,5.304,0.028,7.952-0.19c2.7-0.223,5.286-1.247,8.092-0.98c5.018,0.473,10.111-0.737,15.104,0.969
			c2.228,0.761,4.647-0.243,7.146,0.874c2.16,0.966,4.969,0.521,7.532,1.027c4.911,0.972,10.008,1.003,15.214,1.438
			c0.739,0.645,1.714,1.49,2.151,1.869c-0.271,2.352-0.632,4.051-0.636,5.75c-0.04,20.331-0.025,40.662-0.025,60.993
			c0,0.962,0,1.924,0,2.868c16.846,0,33.415,0,50,0c0-19.569,0-38.897,0-58.229c0-4.666-0.78-9.509,0.225-13.947
			c0.959-4.238,3.7-8.101,5.813-12.044c0.893-1.67,2.176-3.132,3.179-4.541c2.813,0,5.314-0.033,7.813,0.01
			c2.584,0.046,5.073-0.508,7.604-0.856c4.088-0.565,8.334-0.426,12.473-0.077c4.307,0.363,8.36-1.13,12.592-1.086
			c4.499,0.047,8.999,0.012,13.499,0.012c1,0,2.254,0.391,2.955-0.067c2.78-1.817,5.714-0.457,8.714-1.062
			c0.438,1.076,0.958,1.904,1.094,2.793c0.175,1.141-0.396,2.604,0.128,3.438c1.364,2.161,0.661,4.431,0.929,6.638
			c0.269,2.203,0.865,4.385,0.936,6.589c0.095,3.058,0.01,6.089,1.396,8.333c9.35,8.056,18.287,15.757,26.813,23.103
			c11.286,0,22.055,0,32.59,0c0.554-2.735,1.054-5.199,1.595-7.871c7.22,0.657,14.415-0.662,21.611,0.985
			c3.167,0.727,6.656,0.336,9.966,0.063c3.471-0.285,6.538,1.633,9.668,1.061c0.561,2.867,1.04,5.336,1.508,7.734
			c2.345,0.443,4.491,0.998,6.675,1.225c2.221,0.229,4.386,0.395,6.613,0.891c3.908,0.871,8.022,0.824,12.053,1.143
			c0.661,0.055,1.56-0.271,1.963,0.056c2.396,1.938,4.983,0.45,7.461,1.074c1.27-2.95,2.364-5.506,3.489-8.122
			c5.371,0,10.718,0.32,16.006-0.09c5.29-0.411,10.247,1.688,15.135,1.078c2.329,2.329,4.332,4.332,6.798,6.798
			c0.316,5.997,0.657,12.477,1.019,19.306c2.834,0,5.752,0,8.813,0c0,15.804,0,31.255,0,47.057c7.078,0,13.988,0,21.058,0
			c0,7.139,0,13.925,0,20.752c8.961,0,17.743,0,26.702,0c0-19.884,0-39.667,0-59.533c4.401-3.461,9.247-5.979,14.169-8.375
			c1.146-0.559,2.195-1.056,3.592-1.04c8.65,0.101,17.306,0.052,26.465,0.052c2.41,5.199,4.875,10.521,7.359,15.888
			c0.694,0,1.479,0,2.038,0c3.954-5.124,7.771-10.068,11.397-14.77c20.94,0,41.393,0,62.191,0c0,15.688,0,31.261,0,47
			c6.14,0,11.925,0,17.879,0c0,17.626,0,35.076,0,52.314c2.31,2.319,4.425,4.445,6.527,6.561c0.682,0,1.346,0,1.367,0
			c2.543-2.542,4.761-4.76,6.726-6.724c-0.203-1.779-0.562-3.478-0.563-5.177c-0.042-16.665-0.082-33.33,0.003-49.995
			c0.033-6.664-0.79-13.406,1.407-20.146c4.424,0.314,9.008-0.654,13.426,1.045c8.631,0,17.263,0,25.843,0
			c6.211-9.308,11.071-19.189,17.671-28.271c3.77,0.34,7.451,0.672,11.385,1.027c8.14,10.67,16.263,21.316,24.355,31.932
			c0,16.445,0,32.745,0,49.095c1.694,0,3.262,0,4.996,0c0-28.002,0-55.785,0-83.92c4.077,0,7.993,0,12.057,0
			c0-2.145,0-3.937,0-5.763c4.628,0,9.079,0,12.936,0c3.306,1.371,0.957,4.194,2.242,5.743c7.571,0,15.023,0,22.518,0
			c0.115-1.729,0.221-3.299,0.338-5.029c11.116,0,21.896,0,32.852,0c0-2.305,0-4.424,0-6.596c6.748,0,13.317,0,20.061,0
			c0,5.335,0,10.455,0,15.537c6.749,0,13.319,0,19.887,0c0-18.909,0-37.573,0-55.771c1.146-1.801,2.437-3.147,2.934-4.746
			c1.25-4.003,3.198-7.681,4.819-11.509c3.086-7.288,7.451-13.897,10.979-20.95c0.485-0.976,1.023-1.927,1.541-2.889
			c3.235,0.492,6.236,0.947,9.428,1.432c0.211,0.413,0.473,1.17,0.93,1.777c3.154,4.201,6.5,8.271,9.479,12.593
			c2.009,2.913,3.788,5.94,5.094,9.382c1.358,3.578,2.592,7.247,4.104,10.791c1.541,3.608,2.793,7.249,2.771,11.381
			c-0.142,25.497-0.073,50.995-0.063,76.492c0,1.097,0.105,2.189,0.166,3.334c2.684-0.485,5.025-0.914,7.643-1.39
			c0.236-0.236,0.708-0.707,1.35-1.349c0-67.943,0-136.059,0-204c0.522-0.522,0.876-0.877,1.334-1.334
			c2.548,0,5.206,0.107,7.851-0.045c1.377-0.08,3.181-0.185,4.005-1.037c2.614-2.707,6.547-3.123,9.227-5.767
			c0.846-0.832,2.729-1.269,4.457-1.222c6.492,0.173,12.99,0.068,18.558,0.068c10.692,4.607,20.6,8.875,30.531,13.155
			c0,74.081,0,147.86,0,221.845c0.972,0,1.777,0.022,2.584-0.007c0.772-0.026,1.543-0.108,2.308-0.168
			c-0.524-11.257,1.56-14.82,5.414-20.825c3.677,0,7.489,0.151,11.286-0.043c3.68-0.188,7.339-0.729,11.177-1.137
			c0-2.146,0-4.269,0-6.132c2.573-2.154,5.214-2.173,7.601-0.572c1.424,0.954,2.495,2.545,3.477,4.017
			c1.744,2.609,4.002,4.029,7.19,3.878c1.148-0.058,2.304-0.011,3.474-0.011c0.924,2.391,1.813,4.688,2.707,7
			c4.427,0,8.754-0.104,13.072,0.062c1.424,0.055,2.446-0.531,3.588-1.062c1.604,0,3.211,0,4.762,0
			c0.476-1.433,0.955-2.565,1.178-3.75c0.064-0.346-0.605-0.827-0.938-1.25c-0.121-1.445,0.053-2.818,1-4
			c2.762-0.063,5.66,0.546,8-1.615c-0.131-2.16,0.541-4.444-1-6.385c2.666,0,5.332,0,8,0c3.531-0.188,7.021,0.091,10.602-0.831
			c3.115-0.804,6.602-0.169,9.896-0.169c1.76,1.662,0.707,4.814,3.418,6.101c1.39-0.401,2.885-0.834,4.354-1.259
			c0.593,0.559,1.064,1.005,1.43,1.347c0.51,4.918,1.006,9.709,1.531,14.813c0.891,0,1.855,0.032,2.821-0.006
			c8.176-0.322,16.35-0.67,24.524-0.985c1.443-0.058,2.894-0.009,4.494-0.009c0-2.185,0-3.972,0-5.91
			c1.946,0,4.127-0.649,5.428,0.144c2.293,1.396,4.766-0.142,6.63,0.885c2.253,1.242,4.37,0.599,6.462,0.926
			c0.798-1.933,1.12-4.005,2.313-5.234c1.189-1.229,3.25-1.615,5.03-2.416c0.269-1.978,2.423-3.458,2.199-5.918
			c-0.037-0.419,1.44-1.028,2.267-1.464c2.649-1.399,5.609-0.919,8.205-1.018c2.026-2.911,3.834-5.51,5.563-7.991
			c2.619,0,4.943-0.062,7.265,0.018c2.267,0.075,4.224-1.707,6.569-1.018c1.601,0,3.199,0,4.91,0
			c1.277,2.449,2.467,4.729,3.803,7.291c2.482-2.255,5.479-0.979,8.287-1.291c0.617,0,1.234,0,2.094,0
			c-0.831,6.916,1.318,13.281,0.988,19.872c-0.363,7.276-0.082,14.588-0.082,22.005c1.695,0,3.149,0,4.384,0
			c1.825-1.313,3.512-2.525,5.021-3.611c3.952-1.266,7.276,0.836,10.719,1.842c3.078,0.9,4.646,3.832,6.086,6.591
			c0.066,0.131,0.244,0.202,0.459,0.374c4.082-0.911,8.084,2.214,12.47,0.487c0-8.141,0-16.258,0-24.617
			c1.372-0.521,2.633-0.999,3.951-1.499c0.307-3.072,0.666-6.099,0.896-9.134c0.215-2.878,0.071-5.701,0.847-8.626
			c0.774-2.936,0.17-6.235,0.17-9.184c0.541-0.542,0.896-0.896,1.375-1.374c11.985,0,24.101,0,36.244,0
			c0.438,0.437,0.911,0.903,1.381,1.369c0,6.339,0,12.668,0,19.074c1.451,0.998,2.287,3.431,5,2.016
			c0-2.212,0.207-4.546-0.056-6.824c-0.293-2.537,1.261-4.479,1.359-6.978c8.422,0,16.527,0,24.79,0c0-25.323,0-50.435,0-75.627
			c3.079-0.881,6.024-1.723,8.979-2.566c-0.658-5.625,1.248-10.841,1.025-16.289c-0.371-9.147-0.104-18.32-0.081-27.481
			c0-0.269,0.3-0.533,0.5-0.865c0.431,0.078,0.884,0.162,1.273,0.231c0.707,2.609-0.084,5.142,1.028,7.739
			c0.938,2.189,0.154,4.98,1.072,7.543c1.018,2.839-0.413,5.941,0.893,9.13c1.08,2.636,0.231,5.962,1.088,9.029
			c0.931,3.323,0.898,6.918,1.306,10.556c3.822-0.854,7.315-1.636,10.515-2.351c0.446-7.478,0.877-14.653,1.307-21.833c1,0,2,0,3,0
			c0.283,0.117,0.773,0.188,0.813,0.361c0.146,0.622,0.229,1.289,0.171,1.926c-0.666,7.215,1.229,14.278,1.072,21.633
			c2.948,0.487,5.751,0.953,9.021,1.495c1.244,0.613,0.916,2.195,0.918,3.658c0.002,11.981,0,23.962,0,35.942
			c0,1.623,0,3.246,0,4.787c6.826,0.501,13.289,0.975,19.845,1.454c0.764,8.786-0.229,17.605,0.948,26.461
			c1.002,7.521,0.236,15.28,0.199,22.936c-0.037,7.535,1.563,14.979,1.043,22.553c-0.678,9.85,0.713,19.645,1.146,29.545
			c2.898,0.534,5.832,1.077,8.549,1.58c0.938,1.956,1.801,3.76,2.656,5.547c0.793,0,1.576,0,2.139,0
			c2.605-3.052,0.773-6.736,1.781-9.878c0.693,0,1.193,0,1.691,0c0.479,0.381,0.957,0.761,2,1.589c0-1.707,0-2.647,0-3.589
			c0-36,0-72,0-108c0-0.613,0-1.229,0-1.878c2.235-0.108,4.135-0.202,6-0.296c0-0.836,0-1.332,0-1.826
			c2.105-0.171,0.116-2.488,1.651-3.026c3.267,0.276,6.718-0.657,9.941,1.121c0.97-1.441,1.849-2.749,2.672-3.977
			c3.589,0,7.032,0,10.405,0c1.925,2.381,4.427,3.178,7.029,2.909c1.334,2.479,1.334,2.479,3.739,3.021
			c1.806-3.219,6.458-1.186,8.53-4.774c-0.256-2.182,0.475-4.368,2.293-6.039c11.621,0,4.979-0.017,16.689-0.017
			c0,2.354,0,60.781,0,192.781c-684.668,0-1235.334,0-1920,0"/>
	</g>
	<g id="Layer_2_1_">
		<g id="Layer_2_2_">
			<path fill="#545555" d="M101.832,308.587c0-2.213-0.207-4.547,0.055-6.823c0.293-2.539-1.26-4.48-1.359-6.978
				c-8.422,0-16.527,0-24.789,0c0-25.325,0-50.435,0-75.626c-3.08-0.881-6.025-1.723-8.979-2.568
				c0.656-5.624-1.248-10.839-1.027-16.289c0.371-9.146,0.104-18.32,0.08-27.481c0-0.269-0.299-0.534-0.5-0.865
				c-0.43,0.078-0.883,0.161-1.273,0.231c-0.707,2.61,0.084,5.142-1.027,7.739c-0.939,2.191-0.156,4.981-1.074,7.544
				c-1.018,2.838,0.414,5.942-0.893,9.129c-1.08,2.637-0.23,5.963-1.088,9.029c-0.93,3.325-0.898,6.919-1.305,10.557
				c-3.822-0.854-7.316-1.637-10.514-2.352c-0.447-7.477-0.877-14.652-1.307-21.832c-1,0-2,0-3,0
				c-0.283,0.117-0.773,0.188-0.814,0.361c-0.145,0.623-0.229,1.289-0.17,1.926c0.666,7.216-1.229,14.279-1.072,21.632
				c-2.949,0.489-5.752,0.954-9.023,1.496c-1.242,0.614-0.916,2.196-0.918,3.659c-0.002,11.98,0,23.962,0,35.941
				c0,1.623,0,3.246,0,4.787c-6.824,0.502-13.289,0.977-19.844,1.454c-0.764,8.786,0.23,17.607-0.949,26.462
				c-1.002,7.521-0.236,15.28-0.197,22.937c0.035,7.535-1.564,14.979-1.045,22.553c0.678,9.848-0.713,19.644-1.146,29.543
				c-2.9,0.537-5.832,1.078-8.549,1.582"/>
			<path fill="#545555" d="M1920,523.309"/>
		</g>
		<g id="Layer_1_2_">
			<path fill="#8A8A8A" d="M0,522.313c0-132,0-190.428,0-192.781c11.711,0,5.068,0.017,16.689,0.017
				c1.818,1.671,2.549,3.857,2.293,6.039c2.072,3.589,6.725,1.556,8.531,4.774c2.404-0.543,2.404-0.543,3.738-3.021
				c2.604,0.269,5.105-0.528,7.029-2.909c3.373,0,6.816,0,10.406,0c0.822,1.228,1.701,2.535,2.672,3.977
				c3.223-1.778,6.674-0.845,9.941-1.121c1.535,0.538-0.455,2.855,1.65,3.026c0,0.494,0,0.99,0,1.826
				c1.865,0.094,3.766,0.188,6,0.296c0,0.648,0,1.265,0,1.878c0,36,0,72,0,108c0,0.941,0,1.882,0,3.589
				c1.043-0.828,1.521-1.208,2-1.589c0.498,0,0.998,0,1.691,0c1.008,3.142-0.824,6.826,1.781,9.878c0.563,0,1.346,0,2.139,0
				c0.855-1.787,1.719-3.591,2.656-5.547c2.717-0.503,5.65-1.046,8.549-1.58c0.434-9.9,1.824-19.695,1.146-29.545
				c-0.52-7.573,1.08-15.018,1.043-22.553c-0.037-7.655-0.803-15.415,0.199-22.936c1.178-8.855,0.186-17.675,0.949-26.461
				c6.555-0.479,13.018-0.953,19.844-1.454c0-1.541,0-3.164,0-4.787c0-11.98-0.002-23.961,0-35.942
				c0.002-1.463-0.326-3.045,0.918-3.658c3.271-0.542,6.074-1.008,9.021-1.495c-0.156-7.354,1.738-14.418,1.072-21.633
				c-0.059-0.637,0.025-1.304,0.172-1.926c0.039-0.173,0.529-0.244,0.813-0.361c1,0,2,0,3,0c0.43,7.18,0.861,14.355,1.307,21.833
				c3.199,0.715,6.693,1.497,10.516,2.351c0.406-3.638,0.375-7.232,1.305-10.556c0.857-3.067,0.008-6.394,1.088-9.029
				c1.307-3.188-0.125-6.291,0.893-9.13c0.918-2.563,0.135-5.354,1.072-7.543c1.113-2.598,0.322-5.13,1.029-7.739
				c0.389-0.069,0.842-0.153,1.273-0.231c0.199,0.332,0.5,0.597,0.5,0.865c0.021,9.161,0.289,18.334-0.082,27.481
				c-0.223,5.448,1.684,10.664,1.025,16.289c2.955,0.844,5.9,1.686,8.98,2.566c0,25.192,0,50.304,0,75.627
				c8.262,0,16.367,0,24.789,0c0.1,2.498,1.652,4.44,1.359,6.978c-0.262,2.278-0.055,4.612-0.055,6.824"/>
		</g>
	</g>
</g>
</svg>
